<?xml version="1.0" encoding="UTF-8"?>
<?xml-stylesheet href="https://cdnjs.cloudflare.com/ajax/libs/font-awesome/6.7.2/css/all.min.css" type="text/css"?>
<svg xmlns="http://www.w3.org/2000/svg" xmlns:xlink="http://www.w3.org/1999/xlink" width="100%" height="100%" stroke-linecap="round" id="graph-div" xmlns:ev="http://www.w3.org/2001/xml-events" style="overflow: hidden; max-width: 100%; touch-action: none; user-select: none; -webkit-user-drag: none; -webkit-tap-highlight-color: rgba(0, 0, 0, 0);"><g id="viewport-20250915151816022" class="svg-pan-zoom_viewport" transform="matrix(1.1952587580363063,0,0,1.1952587580363063,376.0834217384727,51.874999229777515)" style="transform: matrix(1.19526, 0, 0, 1.19526, 376.083, 51.875);"><g><path d="M232.258 57 C232.35 58.76, 232.43 59.772, 232.258 61.167 M232.258 61.167 C232.171 63.419, 231.729 73.752, 232.328 81.417 M232.328 81.417 C231.443 90.131, 230.631 97.734, 232.609 99.917 M232.609 99.917 C232.561 100.961, 232.568 101.738, 232.679 103.501" stroke="rgb(51, 51, 51)" stroke-width="1" fill="none" stroke-dasharray="0.5"></path></g><g><path d="M228.618 99.559 C228.618 99.559, 228.618 99.559, 228.618 99.559 M228.618 99.559 C228.618 99.559, 228.618 99.559, 228.618 99.559 M229.534 101.395 C230.117 100.998, 230.344 100.25, 230.963 99.893 M229.791 101.443 C229.94 101.082, 230.427 100.616, 230.813 99.914 M230.856 103.251 C231.698 102.703, 231.906 102.055, 233.563 99.339 M231.017 103.355 C231.612 102.493, 232.355 100.928, 233.473 99.494 M231.604 105.28 C232.696 103.258, 233.923 101.533, 235.128 100.302 M231.971 105.476 C232.533 104.343, 233.821 102.549, 235.878 99.649" stroke="rgb(51, 51, 51)" stroke-width="0.84" fill="none"></path><path d="M236.238 99.073 C236.578 101.931, 234.756 103.164, 233.483 108.087 M233.194 108.299 C230.904 104.371, 230.28 102.791, 227.942 98.748 M229.044 98.902 C230.549 99.289, 232.593 100.164, 236.494 100.192" stroke="rgb(51, 51, 51)" stroke-width="0.8" fill="none" stroke-dasharray="0.8 0.5"></path></g><g><path d="M190.142 237.493 C184.744 242.673, 179.899 245.332, 177.196 250.596 M177.196 250.596 C165.029 263.04, 139.915 288.14, 125.414 308.423 M125.414 308.423 C113.994 328.759, 114.344 337.573, 112.469 343.193 M112.469 343.193 C112.111 344.81, 112.017 346.516, 112.469 348.609" stroke="rgb(51, 51, 51)" stroke-width="1" fill="none" stroke-dasharray="0.5"></path></g><g><path d="M108.219 344.914 C108.219 344.914, 108.219 344.914, 108.219 344.914 M108.219 344.914 C108.219 344.914, 108.219 344.914, 108.219 344.914 M109.726 347.294 C110.644 346.557, 111.06 346.26, 112.272 344.236 M109.898 347.504 C110.991 346.411, 112.003 345.3, 112.495 344.488 M111.233 350.423 C113.192 348.949, 114.266 347.284, 115.811 344.365 M111.762 349.979 C113.252 348.414, 114.782 346.07, 116.116 344.774" stroke="rgb(51, 51, 51)" stroke-width="0.801" fill="none"></path><path d="M116.53 344.528 C116.02 345.715, 114.662 348.929, 111.618 353.22 M113.138 352.525 C110.391 349.36, 110.204 347.364, 108.4 344.836 M108.269 344.088 C110.635 345.236, 113.242 343.933, 115.863 345.285" stroke="rgb(51, 51, 51)" stroke-width="0.8" fill="none" stroke-dasharray="0.8 0.5"></path></g><g><path d="M275.374 237.493 C277.563 240.658, 282.473 246.418, 288.153 250.596 M288.153 250.596 C302.411 265.241, 325.36 290.641, 339.268 308.423 M339.268 308.423 C351.47 326.489, 350.192 336.058, 352.047 343.193 M352.047 343.193 C352.032 344.486, 352.145 345.76, 352.047 348.609" stroke="rgb(51, 51, 51)" stroke-width="1" fill="none" stroke-dasharray="0.5"></path></g><g><path d="M347.729 344.982 C347.729 344.982, 347.729 344.982, 347.729 344.982 M347.729 344.982 C347.729 344.982, 347.729 344.982, 347.729 344.982 M349.168 346.238 C349.358 346.133, 349.798 345.524, 350.66 344.807 M349.169 346.233 C349.623 345.91, 349.886 345.47, 350.485 344.751 M350.454 348.027 C350.981 347.156, 351.438 345.948, 353.311 344.433 M350.199 348.558 C350.732 347.437, 351.607 346.781, 353.54 344.781 M350.271 350.64 C352.533 348.186, 354.443 346.885, 356.829 344.752 M350.899 350.186 C352.974 348.74, 354.309 346.701, 356.393 343.942 M351.557 352.402 C352.716 350.713, 354.417 349.343, 358.362 344.928 M352.091 352.246 C353.215 350.419, 355.329 348.098, 358.156 345.73" stroke="rgb(51, 51, 51)" stroke-width="1.607" fill="none"></path><path d="M355.904 343.986 C354.717 348.32, 352.986 350.068, 351.607 352.323 M355.881 344.308 C354.705 347.267, 353.645 350.047, 352.215 352.874 M352.648 352.846 C350.062 350.105, 348.942 347.064, 347.198 345.286 M351.872 352.167 C351.671 351.215, 350.166 349.264, 347.897 344.463 M348.035 344.117 C350.607 344.543, 351.667 343.931, 356.222 343.924 M348.245 344.956 C350.796 344.286, 353.857 344.673, 355.902 344.588" stroke="rgb(51, 51, 51)" stroke-width="0.8" fill="none" stroke-dasharray="0.8 0.5"></path></g><g><path d="M352.047 401.609 C351.63 402.288, 352.05 403.534, 352.047 405.776 M352.047 405.776 C353.894 410.373, 352.43 417.263, 352.047 425.943 M352.047 425.943 C350.62 435.112, 353.117 440.453, 352.047 444.109 M352.047 444.109 C352.368 445.151, 352.016 446.553, 352.047 447.609" stroke="rgb(51, 51, 51)" stroke-width="1" fill="none" stroke-dasharray="0.5"></path></g><g><path d="M347.966 443.677 C347.966 443.677, 347.966 443.677, 347.966 443.677 M347.966 443.677 C347.966 443.677, 347.966 443.677, 347.966 443.677 M349.537 446.298 C350.49 445.677, 350.883 445.316, 353.145 443.728 M349.086 446.629 C350.281 445.751, 351.43 444.731, 352.712 443.151 M351.277 449.526 C352.23 448.063, 353.771 447.633, 356.119 444.501 M351.331 449.032 C353.406 447.193, 355.369 445.419, 356.143 444.464" stroke="rgb(51, 51, 51)" stroke-width="1.513" fill="none"></path><path d="M355.356 444.309 C354.185 447.126, 353.793 449.683, 352.535 451.117 M355.864 443.565 C355.284 446.193, 353.735 448.12, 351.756 451.69 M352.488 450.742 C350.386 449.939, 351.05 447.94, 348.703 444.068 M351.829 451.393 C351.492 449.236, 350.234 447.988, 348.372 443.995 M348.468 442.851 C349.961 444.296, 352.055 443.729, 355.655 442.899 M348.226 443.927 C350.733 443.277, 353.847 443.763, 356.279 443.251" stroke="rgb(51, 51, 51)" stroke-width="0.8" fill="none" stroke-dasharray="0.8 0.5"></path></g><g><path d="M352.047 500.609 C351.822 501.741, 351.756 502.639, 352.047 504.776 M352.047 500.609 C352.167 502.112, 352.039 503.81, 352.047 504.776 M352.047 504.776 C350.553 510.397, 352.613 517.167, 352.047 524.943 M352.047 504.776 C353.722 507.071, 353.607 516.338, 352.047 524.943 M352.047 524.943 C351.185 534.221, 350.158 539.323, 352.047 543.109 M352.047 524.943 C351.102 533.562, 351.46 538.099, 352.047 543.109 M352.047 543.109 C352.177 544.24, 352.051 544.955, 352.047 546.609 M352.047 543.109 C352.099 544.494, 351.985 545.862, 352.047 546.609" stroke="rgb(51, 51, 51)" stroke-width="1" fill="none" stroke-dasharray="0.5"></path></g><g><path d="M348.289 542.226 C348.289 542.226, 348.289 542.226, 348.289 542.226 M348.289 542.226 C348.289 542.226, 348.289 542.226, 348.289 542.226 M349.652 545.592 C349.913 545.085, 350.392 544.166, 351.65 543.103 M349.811 545.475 C350.217 545.002, 350.536 544.433, 351.503 543.041 M350.582 549.065 C352.694 546.368, 353.633 545.253, 355.351 542.604 M351.297 549.092 C352.385 546.345, 353.901 544.468, 354.768 543.007" stroke="rgb(51, 51, 51)" stroke-width="1.291" fill="none"></path><path d="M355.953 542.835 C355.044 544.5, 353.952 545.721, 351.786 550.582 M351.246 550.883 C351.331 548.655, 348.835 545.775, 347.267 542.36 M348.063 541.941 C351.525 542.485, 353.92 542.123, 356.603 543.37" stroke="rgb(51, 51, 51)" stroke-width="0.8" fill="none" stroke-dasharray="0.8 0.5"></path></g><g class="text-container" transform="matrix(0.999999 0 0 0.999999 -4.12809e-7 0.0000160844)"><text y="-10.1" style="font-style: normal;font-weight: 400;font-size: 16px;font-family: Comic Sans MS, cursive;" stroke="none" stroke-width="1px" fill="rgb(51, 51, 51)" text-anchor="start" dominant-baseline="auto"><tspan class="text-outer-tspan" x="0" y="-0.1em" dy="1.1em" stroke="none" stroke-width="1px" fill="rgb(51, 51, 51)" text-anchor="start" dominant-baseline="auto"></tspan></text></g><g><path d="M96.969 303.794 C96.969 303.794, 96.969 303.794, 96.969 303.794 M96.969 303.794 C96.969 303.794, 96.969 303.794, 96.969 303.794 M97.222 306.643 C97.918 305.221, 99.303 304.536, 99.669 303.316 M97.036 306.787 C97.727 306.128, 98.153 305.488, 99.818 303.576 M97.447 309.304 C98.701 306.959, 100.184 306.479, 102.277 302.956 M97.317 309.837 C99.283 307.327, 101.667 304.49, 102.468 303.476 M96.236 312.835 C97.982 309.331, 99.801 308.98, 104.849 304.48 M96.89 312.849 C99.869 309.908, 103.13 307.006, 105.124 303.056 M96.311 314.742 C102.05 312.019, 102.905 308.759, 108.986 302.892 M96.785 315.818 C100.499 312.158, 103.745 307.7, 107.519 302.734 M95.101 319.538 C102.885 315.987, 105.844 308.191, 112.137 304.435 M96.971 317.963 C102.153 313.868, 107.503 306.958, 111.144 302.441 M95.347 322.345 C103.887 316.455, 108.732 309.516, 111.789 303.656 M96.129 321.031 C101.689 317.517, 105.387 312.5, 113.652 304.221 M95.134 323.88 C101.084 319.185, 109.724 313.868, 117.458 302.26 M96.703 323.592 C104.126 316.939, 112.158 307.872, 115.681 303.258 M98.263 326.601 C102.673 323.239, 108.954 316.49, 117.578 302.657 M96.788 327.966 C103.676 321.162, 110.335 313.404, 118.359 302.897 M98.528 327.707 C106.833 319.299, 111.359 313.689, 120.445 301.799 M99.147 327.717 C107.091 320.741, 113.493 312.571, 122.09 302.98 M102.346 326.313 C111.769 316.386, 117.167 308.708, 124.076 304.229 M102.709 327.275 C111.423 318.922, 118.834 309.52, 123.819 304.055 M106.72 325.166 C110.086 320.787, 114.76 318.156, 125.836 305.72 M106.08 326.021 C113.102 318.835, 119.836 310.715, 124.147 306.249 M109.471 325.852 C112.426 320.652, 116.87 316.075, 122.21 311.29 M107.652 326.225 C112.376 321.5, 117.572 315.604, 123.89 309.684 M109.425 326.287 C114.515 323.655, 118.07 315.897, 124.979 313.386 M111.26 326.478 C116.171 321.09, 119.555 317.771, 124.953 312.374 M113.366 328.027 C117.541 324.326, 121.569 319.75, 125.603 314.939 M112.905 327.222 C116.314 323.975, 120.99 319.95, 124.656 315.449 M117.449 327.179 C118.347 323.394, 122.702 321.964, 124.532 318.015 M116.296 327.402 C117.91 325.165, 120.401 323.062, 124.944 318.245 M119.024 327.235 C120.301 324.598, 121.77 324.004, 124.429 321.374 M118.986 326.657 C120.312 325.564, 122.233 323.82, 123.961 321.814 M122.106 327.122 C122.463 325.896, 123.241 325.117, 123.683 324.816 M121.928 326.822 C122.539 326.015, 123.375 325.364, 124.01 324.69" stroke="rgba(232, 232, 232, 0.5)" stroke-width="1.062" fill="none"></path><path d="M96.246 303.821 C102.564 303.16, 110.551 305.073, 125.198 302.427 M123.677 305.48 C124.024 311.322, 123.085 319.561, 124.971 324.926 M125.44 325.988 C118.961 324.917, 113.242 326.166, 95.565 326.296 M97.02 326.781 C95.548 322.105, 95.842 314.659, 95.884 303.436" stroke="rgba(232, 232, 232, 0.5)" stroke-width="1" fill="none"></path></g><g class="text-container" transform="matrix(0.999999 0 0 0.999999 99.1406 304.609)"><text y="-10.1" style="font-style: normal;font-weight: 400;font-size: 16px;font-family: Comic Sans MS, cursive;" stroke="none" stroke-width="1px" fill="rgb(51, 51, 51)" text-anchor="start" dominant-baseline="auto"><tspan class="text-outer-tspan" x="0" y="-0.1em" dy="1.1em" stroke="none" stroke-width="1px" fill="rgb(51, 51, 51)" text-anchor="start" dominant-baseline="auto"><tspan font-style="normal" class="text-inner-tspan" font-weight="normal">Yes</tspan></tspan></text></g><g><path d="M338.93 303.338 C338.93 303.338, 338.93 303.338, 338.93 303.338 M338.93 303.338 C338.93 303.338, 338.93 303.338, 338.93 303.338 M338.712 304.768 C339.429 304.537, 339.694 304.09, 340.383 303.226 M338.859 304.797 C339.538 304.149, 340.136 303.561, 340.429 303.454 M339.267 306.459 C339.965 305.368, 340.989 304.356, 341.942 303.193 M339.031 306.339 C339.677 305.616, 340.27 304.881, 341.931 303.477 M338.565 307.039 C339.536 306.942, 340.978 305.596, 343.652 302.948 M338.804 307.292 C340.568 306.392, 341.862 304.951, 343.124 303.713 M339.217 309.13 C341.136 307.007, 342.965 305.403, 344.848 302.741 M339.016 309.304 C340.568 307.313, 341.513 306.108, 344.585 303.266 M339.229 311.098 C340.771 307.797, 342.947 305.375, 345.445 303.995 M339.09 310.583 C340.786 308.075, 342.576 306.277, 346.317 303.325 M339.484 312.498 C341.374 307.662, 345.015 306.804, 347.001 304.076 M339.023 311.299 C342.536 308.823, 344.7 305.236, 347.508 303.767 M338.662 312.036 C340.743 310.886, 345.036 307.501, 348.06 303.413 M338.662 312.626 C341.763 311.028, 344.981 307.446, 348.944 303.404 M338.921 315.074 C342.185 310.064, 348.186 306.76, 348.845 304.165 M338.87 314.007 C340.76 312.062, 344.152 310.28, 350.229 303.074 M339.863 314.721 C342.089 313.222, 344.655 310.8, 351.36 302.456 M338.57 316.23 C344.48 310.781, 348.067 305.649, 352.156 303.367 M338.212 317.859 C341.901 312.203, 347.616 311.364, 354.5 304.114 M339.499 317.389 C344.211 312.725, 349.588 308.185, 353.096 303.714 M339.467 320.183 C343.149 317.224, 346.829 309.972, 354.862 304.448 M339.336 319.313 C342.302 316.78, 345.967 312.089, 354.593 303.748 M339.498 319.514 C344.454 315.557, 346.233 312.269, 357.029 303.333 M338.121 321.089 C342.931 316.847, 346.508 311.172, 355.144 304.335 M338.035 320.31 C342.446 317.569, 348.858 314.192, 359.237 303.556 M337.808 322.297 C342.921 315.755, 348.955 312.243, 356.456 304.523 M337.258 324.781 C346.034 316.608, 352.89 309.039, 359.9 303.151 M337.578 323.237 C345.903 315.893, 354.461 307.961, 359.543 303.851 M338.319 323.807 C346.592 318.142, 354.08 310.403, 358.658 302.462 M337.591 324.645 C343.215 320.702, 348.507 314.814, 361.132 303.711 M338.99 326.558 C345.007 315.549, 355.762 308.918, 363.442 301.84 M339.291 326.599 C344.459 319.082, 351.32 313.5, 360.618 302.82 M338.144 326.957 C346.63 316.855, 357.722 311.733, 360.589 304.029 M338.238 325.796 C347.133 319.715, 355.2 312.02, 361.61 306.106 M342.231 325.907 C344.46 319.44, 350.454 315.01, 362.868 308.344 M341.037 326.764 C346.832 319.564, 355.642 313.055, 361.477 307.111 M342.206 325.668 C350.746 319.173, 355.486 314.228, 363.316 308.659 M342.222 326.748 C347.463 319.918, 354.744 314.325, 361.044 308.619 M341.674 326.465 C347.245 321.777, 351.967 317.661, 362.399 308.092 M343.733 327.297 C348.998 321.181, 355.528 314.805, 361.218 308.965 M346.528 327.746 C348.881 320.68, 355.445 314.975, 363.175 310.434 M344.731 327.353 C349.605 321.326, 354.938 317.409, 362.24 311.343 M347.956 325.695 C348.687 323.728, 352.942 320.111, 360.32 313.228 M345.932 326.661 C349.657 323.465, 354.447 319.845, 362.347 312.056 M348.25 327.403 C354.088 323.367, 356.071 317.802, 361.963 315.229 M347.76 326.319 C353.658 321.688, 358.359 317.437, 360.68 313.217 M350.461 327.5 C354.146 324.363, 355.57 321.226, 359.64 314.649 M349.163 326.193 C352.478 323.194, 355.439 320.755, 361.212 315.926 M351.063 326.506 C352.899 323.973, 355.863 319.912, 362.075 316.974 M350.408 326.944 C354.369 322.42, 358.838 318.37, 361.918 315.814 M350.947 327.692 C353.748 323.548, 359.427 322.052, 361.821 318.68 M352.553 326.688 C354.261 324.917, 355.14 322.8, 361.522 318.213 M354.1 326.379 C356.923 325.154, 358.1 321.269, 361.081 318.796 M353.452 327.105 C355.796 324.228, 358.461 321.919, 361.262 319.068 M354.56 326.899 C356.715 325.582, 358.681 323.993, 361.602 321.581 M354.663 326.96 C356.441 325.997, 357.122 324.721, 361.132 321.04 M356.175 326.478 C358.575 324.771, 359.677 323.009, 361.486 321.413 M356.42 327.104 C357.399 326.1, 358.663 324.62, 361.65 321.409 M357.665 326.834 C359.261 326.111, 360.277 324.454, 362.076 322.508 M357.549 327.18 C358.684 325.689, 359.811 325.094, 361.611 322.986 M359.071 327.166 C359.953 325.945, 361.375 325.197, 361.832 324.086 M358.857 327.135 C359.769 326.289, 360.556 325.72, 361.989 324.106 M360.504 326.992 C360.953 326.63, 361.102 326.423, 361.771 325.525 M360.426 327.095 C360.819 326.755, 361.274 326.348, 361.871 325.644" stroke="rgba(232, 232, 232, 0.5)" stroke-width="0.786" fill="none"></path><path d="M340.26 301.838 C346.738 303.459, 353.624 301.896, 362.794 302.748 M338.619 302.849 C344.084 304.303, 350.304 303.523, 360.598 303.46 M360.328 303.601 C359.531 311.172, 359.663 320.097, 361.529 326.761 M361.423 302.757 C361.926 308.788, 362.209 314.994, 361.586 326.531 M360.301 324.69 C351.783 325.058, 343.872 324.979, 339.146 325.428 M362.346 327.177 C353.717 327.24, 346.717 325.893, 338.946 325.853 M339.496 325.275 C336.816 317.66, 337.082 311.337, 338.829 305.461 M337.662 327.337 C337.823 321.221, 338.597 315.421, 338.448 303.455" stroke="rgba(232, 232, 232, 0.5)" stroke-width="1" fill="none"></path></g><g class="text-container" transform="matrix(0.999999 0 0 0.999999 340.648 304.609)"><text y="-10.1" style="font-style: normal;font-weight: 400;font-size: 16px;font-family: Comic Sans MS, cursive;" stroke="none" stroke-width="1px" fill="rgb(51, 51, 51)" text-anchor="start" dominant-baseline="auto"><tspan class="text-outer-tspan" x="0" y="-0.1em" dy="1.1em" stroke="none" stroke-width="1px" fill="rgb(51, 51, 51)" text-anchor="start" dominant-baseline="auto"><tspan font-style="normal" class="text-inner-tspan" font-weight="normal">No</tspan></tspan></text></g><g class="text-container" transform="matrix(0.999999 0 0 0.999999 -4.12809e-7 0.0000160844)"><text y="-10.1" style="font-style: normal;font-weight: 400;font-size: 16px;font-family: Comic Sans MS, cursive;" stroke="none" stroke-width="1px" fill="rgb(51, 51, 51)" text-anchor="start" dominant-baseline="auto"><tspan class="text-outer-tspan" x="0" y="-0.1em" dy="1.1em" stroke="none" stroke-width="1px" fill="rgb(51, 51, 51)" text-anchor="start" dominant-baseline="auto"></tspan></text></g><g class="text-container" transform="matrix(0.999999 0 0 0.999999 -4.12809e-7 0.0000160844)"><text y="-10.1" style="font-style: normal;font-weight: 400;font-size: 16px;font-family: Comic Sans MS, cursive;" stroke="none" stroke-width="1px" fill="rgb(51, 51, 51)" text-anchor="start" dominant-baseline="auto"><tspan class="text-outer-tspan" x="0" y="-0.1em" dy="1.1em" stroke="none" stroke-width="1px" fill="rgb(51, 51, 51)" text-anchor="start" dominant-baseline="auto"></tspan></text></g><g><path d="M183.824 7.823 C183.824 7.823, 183.824 7.823, 183.824 7.823 M183.824 7.823 C183.824 7.823, 183.824 7.823, 183.824 7.823 M183.405 12.693 C185.738 10.743, 187.752 9.935, 189.886 7.607 M183.847 13.278 C184.933 12.093, 186.999 10.711, 189.698 8.037 M184.145 20.933 C186.674 15.963, 191.92 9.925, 194.167 7.18 M183.915 20.547 C185.475 17.049, 189.569 14.777, 193.798 8.997 M185.35 27.347 C188.834 19.544, 193.087 15.058, 199.411 9.803 M182.908 26.406 C187.041 20.414, 191.695 17.17, 200.172 7.929 M183.498 32.662 C192.317 20.989, 200.074 11.855, 205.713 6.801 M182.832 31.759 C190.77 24.175, 198.664 14.519, 204.819 7.514 M183.997 35.568 C195.505 27.028, 203.011 14.659, 213.101 6.629 M183.938 36.991 C189.556 29.211, 196.72 22.453, 211.488 8.631 M183.761 42.665 C193.59 34.354, 198.995 25.881, 217.157 8.427 M184.373 42.844 C196.952 29.852, 208.588 15.784, 216.618 6.744 M183.859 47.997 C194.858 34.098, 210.991 21.238, 220.907 10.225 M183.514 49.547 C193.418 36.929, 205.439 26.4, 221.284 7.368 M183.008 54.031 C197.934 39.583, 213.073 22.26, 228.331 8.423 M184.15 53.78 C193.177 45.18, 201.114 35.17, 227.858 7.697 M184.778 57.546 C198.611 43.907, 213.291 26.624, 232.769 6.824 M184.798 58.915 C199.72 43.001, 215.993 27.971, 233.856 8.74 M191.94 58.705 C207.189 41.439, 224.422 23.068, 240.114 7.6 M190.443 58.598 C200.826 47.993, 210.155 37.586, 239.348 8.58 M196.145 59.767 C211.235 42.927, 222.011 28.645, 244.672 7.399 M197.133 58.605 C212.278 41.676, 227.386 26.959, 243.815 8.228 M202.655 60.108 C211.559 48.197, 224.064 36.315, 247.879 9.883 M202.842 58.302 C212.833 48.522, 221.628 37.384, 248.887 8.176 M205.99 60.516 C225.617 38.497, 243.241 20.252, 254.773 6.612 M206.334 58.09 C217.517 46.046, 229.71 34.423, 255.32 8.328 M214.424 56.824 C230.642 41.715, 245.753 21.974, 260.12 8.501 M211.733 57.761 C231.469 39.271, 249.843 18.249, 260.13 7.464 M217.49 57.185 C228.171 47.396, 239.441 34.704, 266.361 9.592 M217.72 58.895 C227.634 49.354, 238.146 39.193, 266.335 7.566 M222.326 60.25 C242.795 37.62, 260.234 21.63, 273.297 6.106 M223.93 58.886 C238.039 43.529, 250.488 29.728, 272.7 8.203 M231.606 57.653 C249.912 37.933, 268.022 17.876, 275.208 7.08 M229.662 57.97 C240.15 48.898, 247.961 37.136, 277.877 8.626 M235.677 59.126 C243.617 48.77, 255.088 36.369, 281.375 8.492 M234.203 59.444 C247.2 45.375, 261.105 31.926, 281.457 8.664 M239.757 60.65 C255.629 44.084, 268.244 28.434, 282.391 14.864 M240.967 59.176 C256.12 42.177, 272.158 25.9, 283.248 15.155 M247.792 58.316 C254.861 51.633, 259.771 41.314, 280.03 20.747 M246.308 58.244 C258.975 44.051, 270.42 32.267, 282.437 21.618 M250.911 58.95 C262.775 46.662, 271.813 38.136, 281.031 26.256 M252.051 58.585 C259.798 50.385, 269.32 41.291, 282.388 26.258 M257.552 56.834 C265.697 48.505, 272.913 38.9, 280.153 32.332 M257.768 57.447 C265.952 50.277, 273.648 40.93, 282.39 31.429 M261.916 58.479 C269.943 51.003, 275.165 47.164, 280.953 38.376 M261.379 58.644 C267.068 53.516, 273.291 46.37, 282.224 37.265 M266.039 58.063 C271.26 55.503, 275.781 49.825, 282.466 42.367 M268.648 58.656 C271.055 55.029, 275.563 50.488, 282.241 44.923 M273.882 58.034 C276.54 55.496, 278.575 54.253, 282.377 48.981 M273.571 58.268 C276.88 54.805, 278.946 52.082, 281.396 50.285 M279.289 58.654 C279.811 57.353, 280.887 56.461, 281.623 55.278 M279.345 58.331 C279.741 58.019, 280.202 57.147, 282.018 55.59" stroke="rgb(236, 236, 255)" stroke-width="1.925" fill="none"></path><path d="M183.506 8.533 C217.412 5.694, 253.11 9.22, 280.718 7.145 M281.126 7.457 C283.083 18.8, 280.328 33.821, 279.841 57.82 M281.102 58.495 C247.225 59.45, 218.071 56.268, 182.48 58.613 M183.329 57.412 C181.869 42.312, 182.098 26.505, 184.681 9.786" stroke="rgb(147, 112, 219)" stroke-width="1" fill="none"></path></g><g class="text-container" transform="matrix(0.999999 0 0 0.999999 232.258 23)"><text y="-10.1" style="font-style: normal;font-weight: 400;font-size: 16px;font-family: Comic Sans MS, cursive;" stroke="none" stroke-width="1px" fill="rgb(51, 51, 51)" text-anchor="middle" dominant-baseline="auto"><tspan class="text-outer-tspan" x="0" y="-0.1em" dy="1.1em" stroke="none" stroke-width="1px" fill="rgb(51, 51, 51)" text-anchor="middle" dominant-baseline="auto"><tspan font-style="normal" class="text-inner-tspan" font-weight="normal">Input</tspan></tspan></text></g><g><path d="M146.286 193.495 C146.286 193.495, 146.286 193.495, 146.286 193.495 M146.286 193.495 C146.286 193.495, 146.286 193.495, 146.286 193.495 M151.649 195.963 C162.603 183.462, 172.731 170.405, 199.666 139.726 M150.483 196.731 C169.182 175.412, 189.183 152.606, 200.445 139.701 M155.342 199.563 C176.644 174.472, 199.486 148.89, 233.123 109.62 M154.386 199.195 C174.703 175.055, 196.292 151.788, 233.971 108.877 M156.433 203.975 C185.502 169.399, 215.211 137.345, 239.164 113.348 M157.67 204.485 C181.083 175.534, 206.262 146.968, 237.126 112.404 M161.981 206.82 C182.114 184.565, 201.299 160.457, 242.304 117.6 M161.459 208.239 C178.467 188.252, 194.382 168.759, 240.232 115.487 M164.758 210.257 C180.024 190.468, 197.158 173.547, 245.592 118.576 M163.682 210.593 C193.558 179.085, 222.167 146.67, 244.586 119.071 M167.05 214.24 C191.137 184.527, 217.521 159.205, 249.499 122.42 M167.266 214.388 C197.283 181.816, 224.485 149.743, 249.625 122.387 M170.728 218.935 C193.971 195.804, 211.317 172.084, 252.012 126.052 M171.294 217.945 C189.672 197.766, 206.51 178.322, 251.6 126.43 M176.876 220.355 C194.068 198.855, 211.746 176.735, 255.456 128.483 M176.027 221.644 C198.544 194.645, 220.838 169.012, 254.764 129.376 M178.884 224.377 C206.931 192.159, 234.737 160.559, 261 133.065 M178.268 226.018 C211.239 188.24, 242.307 151.627, 258.331 132.44 M180.748 228.521 C212.114 194.514, 240.049 161.206, 263.601 135.562 M182.439 228.316 C201.967 204.661, 223.686 181.508, 263.037 137.556 M184.646 230.038 C203.793 208.247, 225.152 187.032, 265.032 138.578 M185.787 231.344 C206.405 206.472, 228.546 181.263, 265.631 141.125 M190.559 236.005 C220.737 201.379, 252.023 163.311, 270.909 141.786 M187.89 235.612 C213.353 207.411, 238.509 177.08, 270.343 144.33 M191.568 237.572 C226.433 205.107, 255.405 169.529, 273.232 146.039 M193.105 240.04 C210.954 220.472, 228.24 199.308, 272.353 148.458 M197.041 242.362 C226.92 206.514, 257.541 175.106, 278.34 150.098 M197.057 243.052 C220.635 214.683, 244.332 187.157, 276.483 150.177 M198.251 246.316 C218.535 224.241, 234.01 203.202, 280.56 152.559 M199.051 246.898 C217.456 224.509, 235.282 203.919, 280.32 154.09 M201.484 251.501 C233.937 217.732, 263.623 182.776, 284.876 158.346 M203.919 250.023 C230.854 217.17, 257.962 185.258, 282.908 158.52 M204.947 252.856 C229.203 227.004, 248.035 205.905, 288.89 160.691 M207.888 252.886 C232.462 223.308, 259.168 192.466, 288.205 161.971 M210.054 257.745 C242.088 219.121, 272.751 184.602, 290.994 164.712 M210.747 258.298 C234.272 228.964, 258.424 201.354, 291.651 165.142 M213.946 260.587 C243.747 226.348, 274.624 190.165, 293.753 170.595 M214.69 260.978 C239.104 230.002, 266.724 200.163, 294.802 169.461 M218.914 263.676 C233.62 243.182, 252.796 221.203, 297.141 173.882 M218.116 263.876 C243.914 233.416, 273.195 200.305, 298.058 171.756 M219.124 267.59 C252.347 234.925, 280.73 199.685, 300.872 174.575 M220.439 268.002 C238.089 249.061, 254.932 230.19, 302.029 176.396 M223.697 270.954 C241.531 250.315, 259.37 233.494, 306.998 177.629 M224.891 270.746 C252.429 239.618, 282.051 206.231, 305.354 178.206 M228.618 273.894 C244.208 252.31, 263.656 230.7, 310.04 181.482 M228.293 274.402 C254.67 243.407, 283.436 210.543, 308.012 183.788 M230.276 279.058 C249.086 258.127, 267.243 238.675, 313.902 187.513 M232.161 278.135 C251.49 255.921, 270.854 232.688, 312.918 186.081 M236.853 281.639 C255.412 259.795, 272.446 240.468, 314.629 190.162 M234.378 282.637 C267.671 246.832, 299.495 209.089, 315.636 188.936" stroke="rgb(236, 236, 255)" stroke-width="1.989" fill="none"></path><path d="M232.401 280.14 C266.512 244.624, 300.128 210.815, 318.799 193.605 M232.651 278.901 C251.325 259.759, 269.541 241.945, 318.213 192.313 M319.053 192.909 C294.819 170.237, 271.537 144.68, 234.251 105.682 M319.487 192.692 C290.175 165.574, 262.708 137.683, 233.651 106.886 M233.542 108.287 C212.513 127.336, 196.045 146.246, 145.611 193.369 M232.637 107.82 C209.136 133.275, 183.436 157.147, 147.168 192.507 M147.398 191.583 C166.516 214.996, 185.432 234.21, 233.829 281.313 M147.349 194.006 C165.573 212.244, 182.425 229.072, 232.109 279.695" stroke="rgb(147, 112, 219)" stroke-width="1" fill="none"></path></g><g class="text-container" transform="matrix(0.999999 0 0 0.999999 232.258 183.805)"><text y="-10.1" style="font-style: normal;font-weight: 400;font-size: 16px;font-family: Comic Sans MS, cursive;" stroke="none" stroke-width="1px" fill="rgb(51, 51, 51)" text-anchor="middle" dominant-baseline="auto"><tspan class="text-outer-tspan" x="0" y="-0.1em" dy="1.1em" stroke="none" stroke-width="1px" fill="rgb(51, 51, 51)" text-anchor="middle" dominant-baseline="auto"><tspan font-style="normal" class="text-inner-tspan" font-weight="normal">Is</tspan><tspan font-style="normal" class="text-inner-tspan" font-weight="normal"> input</tspan><tspan font-style="normal" class="text-inner-tspan" font-weight="normal"> in</tspan><tspan font-style="normal" class="text-inner-tspan" font-weight="normal"> cache?</tspan></tspan></text></g><g><path d="M7.886 352.739 C7.886 352.739, 7.886 352.739, 7.886 352.739 M7.886 352.739 C7.886 352.739, 7.886 352.739, 7.886 352.739 M7.152 361.249 C10.679 358.212, 13.346 355.194, 15.089 351.7 M7.63 360.021 C10.766 357.283, 12.805 354.959, 15.43 352.416 M9.017 367.32 C12.085 363.731, 15.39 363.086, 20.526 353.978 M8.651 367.389 C12.296 363.201, 16.274 358.967, 20.664 352.53 M9.199 376.133 C13.81 368.378, 15.909 365.446, 28.898 353.092 M7.529 374.82 C15.446 365.712, 22.733 356.817, 27.05 353.331 M9.312 383.894 C14.563 377.41, 19.003 372.194, 35.858 353.813 M8.633 383.391 C18.018 372.39, 27.887 360.333, 35.709 353.342 M9.727 390.434 C14.965 378.612, 27.054 369.943, 41.038 352.378 M7.544 389.436 C21.574 375.303, 33.779 360.986, 41.72 353.189 M8.273 398.575 C19.762 385.694, 31.476 371.773, 47.545 351.201 M8.711 397.407 C22.294 382.315, 37.484 366.07, 47.546 353.835 M10.68 403.134 C21.524 390.016, 33.593 377.479, 55.876 354.215 M10.456 402.875 C27.271 384.038, 42.077 366.368, 54.635 353.107 M17.648 401.37 C30.836 389.645, 39.166 375.871, 59.381 352.614 M18.03 402.847 C27.311 391.755, 37.771 380.345, 60.427 353.494 M26.152 401.206 C34.727 391.414, 46.329 380.907, 66.612 352.899 M23.911 402.791 C34.761 389.49, 44.913 378.903, 68.405 352.758 M30.701 403.718 C39.257 392.703, 47.079 381.314, 75.907 351.54 M31.625 401.968 C42.367 389.141, 54.773 374.201, 74.726 353.49 M38.451 402.593 C51.542 386.324, 64.923 372.028, 80.462 352.044 M37.746 401.173 C50.385 386.729, 63.304 371.604, 80.855 353.667 M42.817 401.337 C59.219 382.195, 74.4 367.979, 87.052 350.685 M43.564 402.12 C62.363 383.127, 78.906 363.636, 88.612 352.521 M51.566 403.897 C64.702 386.599, 79.872 371.096, 94.297 353.729 M50.784 403.151 C68.324 384.211, 84.974 363.72, 94.181 353.537 M57.27 401.196 C71.946 386.219, 82.453 371.351, 100.376 352.412 M57.939 400.907 C71.881 387.513, 83.794 371.395, 100.551 352.197 M64.113 402.801 C79.725 386.798, 91.773 370.017, 108.574 352.861 M63.688 401.441 C78.941 386.969, 94.224 368.628, 108.11 352.332 M71.808 402.239 C83.882 388.605, 94.936 375.006, 114.12 353.939 M71.71 402.47 C85.009 386.714, 98.595 371.916, 114.519 352.912 M76.468 400.284 C94.493 385.218, 109.789 367.037, 120.732 353.794 M77.927 402.521 C87.492 388.651, 100.297 375.687, 121.083 352.214 M83.681 403.961 C95.105 387.779, 108.136 379.098, 127.681 352.722 M84.18 402.103 C99.956 384.067, 116.775 365.649, 128.614 352.843 M92.412 402.796 C105.755 384.985, 123.882 367.035, 134.695 351.401 M91.514 401.953 C105.32 385.173, 118.62 369.556, 133.475 353.498 M97.249 402.282 C113.349 383.68, 126.531 367.706, 140.921 352.99 M97.797 402.127 C111.641 387.238, 122.925 372.741, 140.368 352.916 M104.17 402.926 C118.39 386.61, 133.57 370.071, 145.908 353.545 M104.345 402.209 C114.738 389.883, 125.218 378.419, 147.077 351.871 M111.033 402.361 C120.969 391.036, 131.567 378.82, 152.844 353.795 M111.767 400.969 C123.106 388.486, 132.865 377.229, 153.578 351.87 M117.718 401.241 C133.8 384.055, 145.263 369.32, 161.505 351.332 M116.64 402.991 C134.839 382.037, 151.223 362.014, 160.888 352.351 M126.246 403.358 C135.576 390.084, 142.826 377.758, 168.693 353.783 M123.679 400.913 C141.718 382.314, 157.568 362.218, 167.732 353.739 M130.65 403.748 C142.44 388.077, 153.556 377.852, 172.909 354.249 M131.297 402.301 C139.584 391.515, 148.471 382.576, 174.273 351.952 M139.064 402.68 C153.058 383.515, 170.845 365.495, 181.751 354.032 M136.659 401.42 C148.018 390.287, 156.793 379.447, 180.276 352.579 M144.494 403.398 C158.784 387.076, 169.541 371.371, 188.59 350.779 M143.627 402.16 C161.548 383.385, 176.734 364.259, 188.565 352.078 M150.619 401.681 C162.59 388.014, 172.018 376.719, 192.302 351.873 M150.373 402.951 C160.298 390.912, 170.703 378.154, 193.443 352.948 M158.142 400.284 C166.443 391.124, 178.986 377.909, 199.414 351.008 M157.678 401.978 C167.491 391.804, 176.489 380.832, 200.344 353.333 M164.646 402.972 C181.464 384.693, 193.26 365.51, 208.492 350.716 M164.251 401.128 C180.351 384.674, 194.812 366.474, 206.72 351.584 M170.261 400.374 C184.419 385.457, 199.415 369.226, 213.442 351.254 M171.183 402.554 C182.316 388.973, 194.254 375.25, 214.629 353.604 M176.646 400.445 C187.296 386.805, 201.443 376.741, 217.762 356.043 M177.541 401.47 C186.809 390.766, 197.331 380.073, 218.427 355.25 M184.508 401.131 C195.586 388.541, 203.717 378.498, 216.545 364.306 M183.707 403.01 C191.461 394.646, 199.642 385.287, 217.915 363.938 M190.912 402.957 C197.189 394.445, 202.69 388.175, 218.517 372.963 M189.591 403.318 C199.666 391.336, 209.801 380.072, 218.423 372.191 M197.159 400.835 C205.421 390.815, 214.369 384.66, 218.221 378.347 M198.281 401.658 C205.415 392.534, 213.995 384.734, 218.812 378.3 M203.862 402.352 C205.769 397.112, 209.59 393.814, 215.915 384.686 M204.219 402.555 C207.584 397.376, 211.109 393.982, 218.66 386.558 M211.878 402.011 C213.32 399.496, 214.384 397.637, 216.562 395.149 M211.392 401.896 C212.567 400.251, 214.519 398.624, 217.897 394.096" stroke="rgb(236, 236, 255)" stroke-width="1.044" fill="none"></path><path d="M9.336 351.367 C60.319 352.387, 109.257 350.571, 216.284 354.073 M8.801 352.104 C71.273 352.712, 133.548 353.733, 216.343 351.758 M217.596 351.106 C218.154 371.239, 218.354 390.26, 215.91 402.143 M215.993 352.96 C217.917 369.581, 217.201 387.384, 217.408 401.521 M216.976 401.679 C153.278 400.438, 88.276 400.735, 7.256 401.542 M217.067 401.248 C134.125 402.619, 49.539 402.928, 7.242 400.794 M7.115 402.873 C7.104 389.209, 8.809 378.301, 7.149 351.629 M7.567 401.477 C7.575 388.41, 7.322 375.869, 7.765 353.391" stroke="rgb(147, 112, 219)" stroke-width="1" fill="none"></path></g><g class="text-container" transform="matrix(0.999999 0 0 0.999999 112.469 367.609)"><text y="-10.1" style="font-style: normal;font-weight: 400;font-size: 16px;font-family: Comic Sans MS, cursive;" stroke="none" stroke-width="1px" fill="rgb(51, 51, 51)" text-anchor="middle" dominant-baseline="auto"><tspan class="text-outer-tspan" x="0" y="-0.1em" dy="1.1em" stroke="none" stroke-width="1px" fill="rgb(51, 51, 51)" text-anchor="middle" dominant-baseline="auto"><tspan font-style="normal" class="text-inner-tspan" font-weight="normal">Return</tspan><tspan font-style="normal" class="text-inner-tspan" font-weight="normal"> cached</tspan><tspan font-style="normal" class="text-inner-tspan" font-weight="normal"> result</tspan></tspan></text></g><g><path d="M266.724 352.79 C266.724 352.79, 266.724 352.79, 266.724 352.79 M266.724 352.79 C266.724 352.79, 266.724 352.79, 266.724 352.79 M267.188 355.036 C267.72 354.29, 268.56 353.688, 270.315 352.044 M267.122 354.915 C268.119 354.464, 268.472 353.661, 270.218 352.517 M266.74 357.033 C268.194 355.753, 271.398 354.156, 272.472 352.046 M267.069 358.106 C269.705 356.153, 272.017 353.635, 273.455 352.873 M266.508 360.343 C269.818 358.414, 271.863 356.477, 276.914 352.019 M266.352 360.726 C270.712 358.259, 273.56 354.947, 276.515 353.292 M268.691 361.977 C269.159 360.627, 272.74 358.147, 278.122 353.42 M267.543 363.397 C271.727 357.975, 277.491 355.449, 280.188 352.498 M266.367 364.943 C271.23 364.287, 275.233 360.625, 281.453 353.896 M267.978 365.794 C272.471 361.081, 276.22 358.477, 281.595 353.002 M264.989 367.723 C271.464 363.075, 278.698 360.836, 285.878 354.63 M267.431 369.079 C271.566 364.38, 274.905 360.956, 285.595 352.031 M266.508 371.974 C272.735 366.215, 277.993 361.72, 290.391 351.427 M265.957 370.688 C271.738 366.434, 276.962 362.525, 288.24 352.461 M268.598 374.57 C270.912 367.426, 279.953 364.32, 291.928 353.852 M268.1 374.015 C274.381 366.75, 281.837 359.749, 292.314 352.822 M268.518 375.925 C275.39 372.368, 280.133 365.881, 296.821 353.95 M267.242 376.476 C274.784 370.428, 283.079 362.567, 295.432 353.157 M265.31 377.582 C276.659 371.4, 290.17 360.468, 298.352 352.496 M267.193 378.6 C274.756 371.047, 284.207 364.875, 297.636 353.556 M266.621 379.218 C273.647 375.356, 283.796 369.948, 300.792 351.287 M267.406 380.623 C277.622 371.967, 288.483 363.73, 301.152 353.426 M265.259 382.643 C275.197 378.197, 286.675 367.911, 302.397 352.648 M266.258 384.515 C280.703 370.986, 296.107 359.433, 303.647 353.104 M266.663 387.947 C282.898 375.031, 299.501 359.161, 307.356 350.998 M266.649 385.91 C275.236 379.88, 285.295 371.123, 307.44 352.819 M267.472 390.959 C285.405 373.647, 300.212 361.672, 310.686 353.538 M267.095 388.779 C279.563 378.383, 290.765 368.862, 309.782 353.127 M265.021 393.103 C284.327 376.495, 298.736 366.886, 312.494 353.947 M267.684 391.258 C279.713 381.316, 293.067 369.562, 314.401 352.845 M267.248 393.851 C284.203 379.379, 299.72 365.332, 315.151 354.47 M266.149 394.223 C284.664 378.39, 303.579 362.743, 317.034 352.509 M269.128 398.511 C282.591 383.213, 299.193 369.204, 321.618 351.004 M267.146 397.341 C279.769 386.572, 292.948 374.98, 320.309 351.692 M265.913 400.866 C277.804 388.662, 292.152 381.414, 321.861 352.503 M266.54 399.957 C284.354 384.782, 301.184 371.227, 322.726 352.926 M267.428 400.694 C279.529 388.515, 294.719 380.763, 326.716 351.133 M267.295 402.241 C288.225 384.871, 308.624 366.704, 326.177 353.651 M269.157 403.457 C291.418 383.853, 310.895 368.448, 330.445 353.675 M270.683 401.652 C287.092 388.321, 305.268 374.083, 328.271 352.698 M274.207 401.079 C291.127 386.551, 309.625 370.062, 333.483 352.405 M273.261 403.238 C292.765 385.68, 313.634 367.848, 331.55 352.075 M276.965 402.816 C300.63 381.928, 322.39 361.64, 333.755 351.699 M276.994 401.837 C299.092 384.042, 318.659 365.373, 334.503 352.924 M279.872 403.508 C293.173 390.32, 308.044 378.454, 339.753 352.719 M278.808 402.875 C302.715 382.611, 324.688 363.716, 338.17 352.457 M282.254 403.057 C303.317 385.898, 320.341 368.052, 342.677 354.08 M282.576 403.019 C302.97 385.283, 323.264 367.493, 341.33 353.461 M285.468 401.488 C308.737 382.082, 332.297 363.579, 344.749 353.894 M285.237 402.434 C305.328 384.083, 327.186 366.741, 344 352.71 M289.738 400.346 C307.688 388.334, 321.328 374.615, 347.698 353.572 M289.73 402.722 C303.352 391.051, 317.317 377.649, 347.088 353.364 M293.262 401.504 C306.293 389.341, 322.039 376.649, 351.073 353.767 M293.089 402.123 C308.407 387.431, 325.293 373.86, 349.625 353.58 M294.701 403.664 C315.221 383.137, 337.712 368.271, 354.657 352.159 M294.553 401.798 C319.152 382.873, 342.436 361.32, 353.928 351.542 M296.168 400.38 C309.381 393.292, 322.706 381.467, 357.916 351.631 M297.603 402.99 C312.74 391.174, 324.911 379.129, 356.837 353.147 M301.776 401.26 C315.62 389.119, 329.375 376.213, 361.663 351.976 M302.167 402.816 C316.732 389.949, 330.49 377.916, 359.883 353.097 M304.242 401.975 C318.345 392.687, 330.149 381.799, 361.613 353.838 M303.755 401.482 C326.465 384.408, 347.805 365.053, 362.809 352.168 M306.715 401.78 C328.026 386.562, 347.867 369.406, 364.128 350.637 M306.942 402.01 C321.064 390.271, 336.965 378.641, 366.255 352.77 M311.445 402.453 C330.844 383.506, 350.244 369.399, 370.453 353.942 M310.282 402.014 C328.245 388.232, 345.837 372.141, 369.125 352.318 M314.596 403.759 C328.237 393.364, 339.944 380.148, 374.163 352.341 M312.78 403.018 C327.61 388.973, 342.627 376.419, 372.085 352.268 M319.026 400.415 C335.219 388.34, 352.494 369.709, 375.197 352.841 M317.365 400.861 C337.974 383.276, 358.852 366.905, 376.01 352.864 M320.957 402.883 C331.546 390.51, 341.954 379.798, 377.427 352.699 M319.121 401.003 C332.892 391.99, 344.824 381.306, 377.365 353.445 M324.188 402.547 C340.711 390.113, 353.286 377.023, 381.963 353.042 M322.993 402.604 C343.382 385.952, 362.92 368.088, 381.777 353.115 M325.341 400.017 C341.741 386.762, 355.948 375.189, 384.058 352.336 M326.791 400.835 C344.459 385.069, 365.013 368.795, 384.317 351.919 M328.382 401.682 C346.638 388.399, 362.323 375.261, 388.867 352.409 M329.682 402.819 C341.54 392.001, 353.317 380.073, 388.859 353.177 M330.711 402.815 C348.378 386.186, 366.425 372.657, 389.503 352.71 M332.136 402.958 C351.141 385.992, 369.626 371.619, 390.387 352.59 M333.744 402.708 C352.279 386.485, 370.715 369.947, 395.175 354.51 M335.189 402.776 C358.235 384.139, 378.834 365.457, 393.13 352.154 M337.374 400.256 C357.458 386.724, 373.215 371.559, 395.721 352.457 M338.621 402.61 C350.492 392.425, 362.297 381.664, 398.244 352.144 M340.069 400.494 C363.82 384.324, 387.672 366.175, 401.071 353.483 M341.458 402.451 C363.277 385.42, 382.666 367.17, 400.811 353.458 M344.415 402.37 C356.439 393.29, 371.077 382.4, 403.27 353.582 M345.655 401.862 C358.553 391.012, 373.869 378.315, 402.861 352.111 M348.471 404.039 C372.705 381.001, 393.088 363.594, 404.799 351.492 M348.198 401.901 C366.015 385.321, 386.211 369.648, 406.471 351.546 M349.666 400.61 C374.109 382.09, 392.876 364.359, 411.062 350.988 M350.968 401.291 C373.926 382.482, 395.559 363.719, 409.794 352.027 M352.902 402.606 C365.403 390.751, 378.962 381.994, 411.771 353.753 M353.678 402.01 C376.407 382.606, 398.537 363.768, 413.273 353.212 M356.404 401.072 C376.677 384.609, 393.393 370.001, 417.503 352.09 M357.229 401.612 C375.473 386.569, 394.04 371.007, 416.589 353.515 M359.652 402.037 C378.109 385.406, 400.348 370.506, 417.576 353.563 M361.113 402.388 C376.095 388.937, 392.15 375.1, 418.889 352.472 M365.164 402.459 C384.373 384.588, 407.21 366.328, 422.543 352.578 M363.954 403.012 C384.472 384.041, 405.968 367.315, 422.631 353.183 M367.355 401.922 C386.134 383.398, 406.884 366.95, 423.919 352.867 M365.747 402.354 C385.786 384.984, 405.069 368.808, 424.128 352.995 M369.405 401.378 C394.782 380.707, 415.311 361.107, 426.876 354.021 M369.518 401.106 C383.768 389.725, 398.079 378.448, 428.032 352.341 M370.822 400.941 C390.828 383.822, 408.771 370.728, 430.16 351.019 M372.987 401.965 C384.715 392.484, 396.698 383.582, 430.401 353.35 M375.274 401.137 C395.001 386.327, 414.154 370.249, 435.559 351.266 M374.45 403.014 C393.439 387.92, 411.337 372.972, 434.132 352.713 M378.993 400.172 C397.999 384.854, 416.693 370.03, 438.605 352.744 M379.851 402.385 C390.669 391.953, 402.179 380.873, 436.436 351.92 M381.533 403.894 C392.552 389.43, 405.537 382.559, 437.265 356.587 M382.738 402.047 C397.259 388.62, 413.458 376.249, 437.651 354.433 M383.808 400.792 C399.493 390.143, 411.71 378.601, 436.36 357.498 M384.409 402.083 C404.99 386.419, 423.551 371.043, 436.712 358.176 M386.546 402.844 C407.603 385.74, 424.623 372.972, 438.732 361.665 M387.91 401.135 C406.277 387.776, 422.217 372.968, 436.401 360.06 M391.376 400.336 C406.136 389.198, 417.701 379.908, 439.365 361.926 M390.76 401.976 C403.97 390.562, 418.046 379.699, 438.055 363.203 M393.554 403.237 C405.014 392.22, 418.089 383.429, 435.653 363.935 M395.353 402.559 C405.411 393.263, 414.66 384.186, 438.288 365.218 M399.122 403.442 C410.081 392.039, 423.794 381.642, 438.527 369.041 M397.428 401.079 C410.951 392.082, 423.303 380.89, 437.959 368.279 M401.893 401.062 C409.736 395.298, 420.935 383.558, 435.92 373.235 M399.518 402.827 C408.55 394.891, 416.085 387.784, 436.786 371.574 M402.85 402.579 C416.197 390.629, 427.951 380.156, 437.446 372.702 M403.107 401.158 C412.158 394.36, 421.414 386.738, 436.641 372.983 M405.494 401.895 C412.136 398.439, 420.161 390.728, 437.309 375.881 M406.727 402.394 C415.573 394.525, 426.701 386.064, 436.586 376.005 M410.793 403.271 C418.272 394.106, 423.787 391.243, 435.134 380.064 M410.894 401.125 C416.755 395.122, 423.711 390.272, 436.548 379.761 M414.539 400.218 C421.285 393.051, 431.627 387.453, 437.486 379.42 M413.469 402.803 C419.469 396.441, 427.616 390.431, 437.778 382.263 M415.038 402.015 C425.143 394.361, 431.628 388.575, 437.506 385.824 M415.504 401.867 C419.614 398.878, 426.128 393.835, 436.685 384.565 M418.418 403.699 C425.594 398.299, 430.098 394.639, 436.336 388.398 M420.066 402.329 C425.766 395.815, 432.597 391.514, 436.876 387.902 M420.339 402.514 C428.88 395.451, 433.025 393.284, 436.623 389.258 M423.069 402.32 C427.715 398.537, 431.748 393.55, 437.683 388.416 M424.924 400.712 C428.864 400.701, 431.96 396.693, 437.171 393.303 M425.651 401.608 C428.001 400.028, 431.786 397.054, 437.947 391.505 M429.009 401.105 C430.561 399.914, 432.954 397.599, 438.057 395.609 M428.175 402.329 C431.381 400.096, 433.294 397.862, 436.958 395.112 M430.912 402.243 C433.712 400.491, 434.303 399.233, 437.433 397.484 M431.765 402.36 C433.002 400.876, 433.805 400.121, 437.59 397.11 M434.426 402.481 C434.967 401.481, 436.229 400.484, 436.973 399.685 M434.283 402.252 C435.234 401.573, 435.869 400.891, 437.321 399.824" stroke="rgb(236, 236, 255)" stroke-width="2.048" fill="none"></path><path d="M265.636 353.641 C327.253 353.285, 386.917 353.212, 439.012 350.781 M267.148 351.752 C325.23 350.452, 384.534 352.187, 437.53 352.963 M436.559 351.307 C437.93 365.365, 436.184 378.411, 435.236 400.751 M437.887 351.762 C436.243 370.23, 436.997 385.573, 436.947 400.727 M436.728 400.111 C371.922 400.306, 309.155 400.982, 265.19 401.567 M436.519 402.202 C390.255 402.641, 343.61 403.201, 267.261 401.507 M265.552 401.419 C268.187 388.601, 265.559 374.299, 268.343 353.549 M267.725 400.684 C267.163 387.498, 267.74 373.604, 267.493 353.05" stroke="rgb(147, 112, 219)" stroke-width="1" fill="none"></path></g><g class="text-container" transform="matrix(0.999999 0 0 0.999999 352.047 367.609)"><text y="-10.1" style="font-style: normal;font-weight: 400;font-size: 16px;font-family: Comic Sans MS, cursive;" stroke="none" stroke-width="1px" fill="rgb(51, 51, 51)" text-anchor="middle" dominant-baseline="auto"><tspan class="text-outer-tspan" x="0" y="-0.1em" dy="1.1em" stroke="none" stroke-width="1px" fill="rgb(51, 51, 51)" text-anchor="middle" dominant-baseline="auto"><tspan font-style="normal" class="text-inner-tspan" font-weight="normal">Compute</tspan><tspan font-style="normal" class="text-inner-tspan" font-weight="normal"> result</tspan></tspan></text></g><g><path d="M247.857 451.648 C247.857 451.648, 247.857 451.648, 247.857 451.648 M247.857 451.648 C247.857 451.648, 247.857 451.648, 247.857 451.648 M247.255 457.14 C249.233 455.757, 252.386 453.945, 254.268 451.326 M247.554 457.617 C249.317 455.79, 251.269 454.172, 253.18 451.927 M246.839 463.102 C251.08 460.985, 252.174 456.903, 261.358 452.011 M248.144 461.542 C251.805 458.946, 254.611 457.031, 260.562 451.372 M246.571 467.758 C253.699 465.145, 256.424 461.005, 264.272 449.836 M247.244 467.608 C252.305 464.911, 256.286 459.713, 265.295 451.849 M246.193 473.935 C254.98 466.767, 264.86 456.451, 271.862 450.351 M247.25 474.277 C256.76 465.385, 266.964 455.611, 270.405 450.886 M246.789 480.347 C255.899 475.141, 261.045 468.328, 277.712 452.383 M247.771 479.209 C257.566 468.963, 268.027 460.535, 277.029 452.345 M249.274 486.025 C261.178 473.475, 275.739 459.563, 282.273 452.674 M248.557 484.899 C257.431 476.786, 265.854 467.389, 283.82 450.834 M248.884 488.592 C258.341 482.342, 265.572 472.241, 287.349 450.188 M247.742 489.697 C262.28 475.687, 278.173 460.495, 288.19 450.72 M246.601 493.564 C264.989 482.036, 278.11 468.273, 295.724 450.88 M247.718 494.983 C260.551 485.342, 271.753 473.326, 294.438 452.177 M249.449 499.41 C261.776 486.906, 275.342 474.868, 302.444 451.741 M248.034 500.137 C261.778 486.195, 276.124 472.81, 300.951 450.433 M254.837 501.707 C265.093 490.155, 278.935 478.213, 306.471 451.562 M254.641 501.501 C267.11 489.861, 277.684 477.852, 305.66 451.73 M257.793 500.594 C276.618 484.527, 296.161 466.867, 314.088 450.491 M260.216 501.524 C278.984 484.317, 297.065 466.196, 313.096 452.457 M266.431 499.504 C281.491 488.429, 296.314 471.257, 319.37 451.117 M265.534 500.34 C277.795 490.194, 289.375 479.596, 318.692 451.758 M273.493 500.764 C288.496 483.411, 304.277 468.053, 324.696 450.586 M272.158 500.097 C285.545 488.632, 297.43 477.412, 324.711 452.334 M277.078 501.546 C292.723 486.889, 304.64 473.389, 329.893 451.892 M276.95 500.422 C295.286 484.261, 311.921 467.415, 330.722 450.949 M284.184 500.812 C299.098 486.199, 314.685 472.087, 336.545 450.5 M283.682 500.6 C300.729 485.175, 318.184 468.994, 336.534 451.589 M290.696 502.388 C302.268 488.041, 317.184 475.565, 343.692 453.187 M289.63 501.31 C301.87 489.319, 315.566 476.477, 341.683 451.348 M296.932 499.717 C309.611 489.714, 323.675 474.252, 348.707 450.377 M295.195 499.889 C311.826 485.996, 327.128 470.956, 347.42 452.108 M301.192 501.853 C313.338 486.549, 328.541 475.334, 353.932 452.289 M301.188 500.768 C321.24 481.081, 343.322 462.69, 353.386 452.085 M306.399 502.629 C315.667 489.523, 326.016 479.979, 358.861 450.821 M306.741 500.816 C315.993 491.625, 327.415 480.596, 358.827 450.97 M314.27 502.469 C332.743 482.833, 349.83 468.177, 365.918 452.565 M311.731 499.647 C333.293 481.72, 353.145 464.016, 365.679 451.859 M318.72 499.422 C331.491 491.279, 343.607 478.768, 371.187 450.318 M318.492 500.951 C331.397 487.788, 345.849 473.511, 371.038 450.91 M325.202 501.573 C342.729 482.873, 359.732 468.484, 378.567 450.989 M324.688 500.623 C340.376 485.833, 354.895 472.571, 376.634 452.628 M331.296 500.393 C350.154 483.687, 370.446 464.111, 384.339 450.399 M330.592 500.448 C346.524 483.545, 365.765 467.946, 382.195 450.419 M336.538 501.328 C354.118 484.824, 372.977 467.223, 390.338 452.661 M336.051 500.324 C347.014 490.398, 357.501 480.676, 387.762 451.71 M342.875 501.227 C360.542 485.733, 377.858 469.676, 392.96 453.728 M341.603 501.294 C355.38 488.318, 370.404 474.78, 393.499 451.073 M347.293 500.816 C359.754 486.95, 376.232 475.818, 400.934 452.54 M347.38 501.099 C366.659 482.461, 386.841 464.401, 400.819 451.463 M352.531 500.634 C366.636 490.097, 380.003 474.291, 405.773 451.123 M353.421 499.995 C367.475 489.026, 380.907 474.958, 406.528 451.292 M357.906 500.118 C376.311 484.018, 396.992 465.416, 413.282 451.736 M359.224 500.882 C377.547 482.809, 397.912 464.746, 412.171 451.699 M363.896 501.837 C380.976 485.559, 398.651 469.055, 417.939 453.626 M364.054 500.564 C380.557 486.352, 395.504 471.477, 418.416 451.017 M370.465 499.446 C391.346 484.959, 408.761 463.777, 424.328 449.587 M370.83 500.066 C382.955 488.51, 395.343 477.673, 423.161 450.951 M376.064 500.942 C388.182 490.93, 399.259 479.071, 430.522 451.788 M376.658 500.127 C396.224 482.668, 416.566 464.257, 428.729 451.105 M383.578 502.349 C394.45 489.436, 411.923 473.959, 434.574 451.209 M382.287 500.853 C398.44 485.568, 414.95 470.869, 435.573 452.537 M390.251 500.105 C401.783 488.732, 414.605 474.992, 440.004 451.159 M388.218 500.201 C403.911 485.712, 418.43 471.652, 440.369 452.753 M394.359 502.162 C412.27 482.861, 432.137 466.708, 447.563 452.233 M395.273 500.567 C412.921 482.168, 433.293 464.321, 447.58 451.778 M401.86 501.363 C413.548 489.687, 426.39 477.148, 454.975 452.907 M399.466 501.737 C417.034 484.435, 434.058 469.121, 453.308 451.258 M405.983 499.273 C426.197 482.999, 442.742 463.258, 455.077 453.71 M405.769 500.057 C426.828 482.635, 445.002 464.763, 455.658 454.711 M412.188 501.566 C426.748 488.432, 438.016 475.892, 456.59 457.043 M412.316 501.283 C426.278 487.269, 439.147 475.017, 456.311 459.581 M419.194 500.262 C427.548 491.932, 435.83 482.835, 456.419 465.486 M418.529 500.631 C425.269 492.081, 433.647 485.396, 456.927 465.127 M423.013 499.417 C433.733 493.052, 442.457 484.667, 457.154 469.534 M424.53 501.274 C431.555 491.983, 441.226 485.196, 456.106 469.654 M429.836 500.663 C437.293 494.386, 445.344 488.085, 455.276 476.987 M428.705 500.708 C435.898 494.281, 442.228 489.873, 456.06 476.077 M436.512 501.82 C441.056 495.773, 448.257 491.126, 458.78 479.709 M435.155 501.011 C440.007 496.61, 443.655 492.616, 456.84 481.562 M441.568 500.3 C444.859 495.715, 450.453 492.666, 456.934 486.537 M440.874 501.342 C445.49 498.05, 449.76 494.374, 456.328 486.93 M447.061 501.706 C449.399 497.296, 452.182 494.656, 456.576 491.508 M447.306 500.544 C449.156 499.089, 451.037 496.936, 457.16 491.677 M453.805 500.298 C454.256 499.724, 456.061 498.223, 457.163 496.637 M453.576 500.499 C454.844 499.357, 456.068 498.033, 457.015 497.142" stroke="rgb(236, 236, 255)" stroke-width="2.255" fill="none"></path><path d="M248.265 450.93 C323.707 453.233, 400.509 452.692, 457.06 453.122 M248.475 450.729 C306.881 452.793, 364.617 453.807, 456.908 451.015 M454.709 451.341 C455.235 460.556, 454.295 472.387, 454.968 499.853 M456.829 451.688 C455.239 463.456, 455.618 475.522, 456.824 500.771 M457.006 502.103 C414.362 502.499, 370.49 501.346, 249.075 499.408 M456.566 500.547 C373.925 501.513, 290.656 502.578, 247.503 500.673 M246.798 500.915 C247.887 488.58, 250.073 476.003, 249.411 451.131 M247.289 501.323 C248.227 488.869, 248.221 476.805, 248.172 451.438" stroke="rgb(147, 112, 219)" stroke-width="1" fill="none"></path></g><g class="text-container" transform="matrix(0.999999 0 0 0.999999 352.047 466.609)"><text y="-10.1" style="font-style: normal;font-weight: 400;font-size: 16px;font-family: Comic Sans MS, cursive;" stroke="none" stroke-width="1px" fill="rgb(51, 51, 51)" text-anchor="middle" dominant-baseline="auto"><tspan class="text-outer-tspan" x="0" y="-0.1em" dy="1.1em" stroke="none" stroke-width="1px" fill="rgb(51, 51, 51)" text-anchor="middle" dominant-baseline="auto"><tspan font-style="normal" class="text-inner-tspan" font-weight="normal">Store</tspan><tspan font-style="normal" class="text-inner-tspan" font-weight="normal"> result</tspan><tspan font-style="normal" class="text-inner-tspan" font-weight="normal"> in</tspan><tspan font-style="normal" class="text-inner-tspan" font-weight="normal"> cache</tspan></tspan></text></g><g><path d="M275.059 550.934 C275.059 550.934, 275.059 550.934, 275.059 550.934 M275.059 550.934 C275.059 550.934, 275.059 550.934, 275.059 550.934 M275.621 557.06 C276.744 556.218, 277.09 554.449, 280.584 551.536 M275.163 557.514 C276.817 555.102, 278.436 552.703, 279.757 551.097 M276.602 563.626 C278.403 558.474, 280.651 555.734, 286.541 550.03 M275.99 563.33 C279.456 559.563, 282.283 554.525, 284.949 550.787 M277.564 568.545 C278.704 565.49, 279.968 562.253, 291.028 549.531 M276.582 569.3 C280.353 564.294, 285.196 556.257, 289.2 551.338 M275.097 578.034 C279.3 572.218, 282.749 565.054, 295.929 550.861 M274.675 577.39 C279.305 571.751, 283.874 565.4, 294.739 551.208 M274.833 581.939 C281.055 576.002, 289.71 567.814, 301.005 550.488 M275.037 583.025 C280.96 576.872, 285.532 569.28, 300.545 550.324 M275.924 591.438 C280.36 582.462, 289.102 573.547, 307.323 552.207 M275.478 589.712 C284.375 580.124, 290.713 569.394, 305.393 550.763 M274.598 596.155 C283.243 584.617, 293.464 575.234, 308.667 551.697 M275.212 597.284 C287.76 581.905, 299.655 564.528, 309.891 550.043 M276.765 598.196 C292.722 580.712, 307.774 561.519, 315.805 550.255 M278.752 599.126 C290.473 582.358, 302.574 566.281, 316.218 550.364 M281.781 600.581 C290.454 588.188, 302.073 577.68, 320.939 552.039 M282.308 600.658 C297.766 580.728, 313.346 560.441, 321.093 549.862 M287.03 600.033 C296.442 588.491, 304.328 577.656, 325.337 550.102 M288.151 599.417 C298.656 585.356, 308.01 572.045, 326.149 549.925 M293.557 601.504 C307.095 583.417, 319.851 568.312, 332.021 550.912 M293.557 599.641 C307.686 580.694, 322.298 560.26, 330.787 549.417 M299.082 598.433 C310.957 582.198, 323.124 565.647, 337.401 549.949 M298.281 599.074 C311.807 581.71, 326.606 562.99, 336.368 550.12 M305.052 599.587 C316.084 583.767, 326.491 565.327, 341.055 550.222 M304.236 599.134 C315.246 581.816, 328.193 565.942, 341.352 550.44 M306.921 600.02 C321.424 581.112, 338.797 562.233, 346.98 552.188 M307.511 600.418 C321.717 581.009, 335.421 564.388, 346.054 549.625 M314.73 597.872 C320.102 589.532, 330.091 578.231, 349.313 549.863 M312.472 599.137 C323.1 588.164, 333.272 574.353, 351.322 551.331 M316.965 597.922 C332.568 581.883, 347.498 562.422, 354.955 550.635 M318.488 599.09 C329.096 585.437, 340.399 571.375, 356.577 550.162 M325.005 597.997 C336.765 581.434, 349.593 566.176, 358.702 551.359 M322.529 599.799 C336.135 580.954, 350.495 564.151, 361.2 550.392 M326.932 598.144 C339.498 587.495, 346.93 574.716, 365.321 548.713 M327.889 599.006 C342.856 580.985, 356.18 563.527, 366.121 550.249 M334.433 598.561 C341.462 589.375, 349.883 576.099, 369.473 548.845 M334.235 600.374 C347.371 580.669, 362.213 561.93, 371.233 551.082 M338.716 601.06 C347.315 585.467, 359.265 573.923, 376.81 551.67 M338.629 600.223 C346.48 589.049, 355.041 579.567, 375.437 550.541 M343.131 599.036 C354.564 581.815, 368.871 567.022, 381.855 550.159 M343.58 600.191 C349.816 589.611, 357.191 581.355, 380.35 549.681 M350.075 598.873 C358.003 586.068, 370.256 573.846, 383.866 551.258 M348.392 600.904 C360.421 583.765, 372.835 568.173, 385.319 551.22 M354.219 601.309 C365.2 584.729, 375.74 571.042, 388.946 549.7 M352.875 600.312 C364.964 585.079, 374.544 569.585, 391.383 549.821 M358 599.802 C367.749 587.08, 381.109 572.625, 397.429 548.517 M357.378 599.009 C368.569 587.044, 379.21 572.013, 395.305 550.948 M361.844 600.317 C374.143 582.697, 390.021 563.868, 400.457 552.189 M362.599 599.024 C372.43 587.689, 380.122 576.062, 399.87 549.566 M369.806 598.092 C380.634 580.027, 396.017 560.653, 406.792 552.079 M367.967 600.246 C376.277 587.842, 385.915 577.777, 405.546 551.274 M373.973 601.813 C386.627 584.312, 396.359 570.411, 408.922 548.686 M373.35 599.464 C383.36 586.453, 393.455 573.728, 409.982 550.748 M376.545 600.778 C386.63 587.932, 397.594 573.731, 414.408 551.5 M379.271 599.256 C392.84 581.731, 408.022 561.918, 414.927 551.301 M382.559 598.998 C395.92 582.268, 410.447 563.772, 421.331 551.203 M382.946 601.065 C392.51 589.539, 399.797 577.81, 421.017 550.273 M389.025 601.861 C401.613 581.375, 416.216 564.285, 426.203 549.645 M389.111 600.288 C397.171 587.915, 405.09 576.101, 425.706 550.44 M393.588 601.247 C401.616 585.24, 415.502 571.069, 429.095 551.09 M394.232 599.467 C402.258 587.623, 411.971 574.894, 430.135 551.722 M397.945 600.599 C405.712 591.224, 415.811 581.465, 429.933 557.786 M399.189 600.812 C406.014 590.314, 411.121 581.447, 429.718 559.153 M403.952 599.28 C409.137 589.756, 418.326 581.834, 429.725 565.011 M402.634 600.869 C410.62 588.103, 419.003 578.307, 428.806 564.981 M409.575 600.566 C412.089 594.093, 416.583 586.682, 427.716 572.757 M408.684 599.923 C417.294 588.655, 424.231 577.904, 429.371 572.138 M414.639 600.247 C415.829 595.18, 418.812 589.628, 429.145 580.356 M413.899 599.762 C419.309 592.779, 424.927 584.526, 429.968 579.606 M418.154 599.541 C423.228 595.303, 427.596 589.05, 427.679 585.556 M418.293 600.857 C422.266 596.018, 425.428 591.905, 429.058 586.25 M423.087 599.242 C424.974 596.962, 428.179 594.1, 429.488 591.408 M423.752 600.048 C424.713 598.354, 426.229 595.425, 429.101 592.41 M428.358 600.23 C428.471 599.961, 428.565 599.908, 428.884 599.339 M428.281 600.194 C428.479 599.938, 428.668 599.677, 428.874 599.46" stroke="rgb(236, 236, 255)" stroke-width="2.602" fill="none"></path><path d="M274.248 552.293 C320.256 547.343, 368.648 549.912, 430.205 551.799 M427.031 550.903 C426.948 564.551, 426.832 581.645, 429.378 599.45 M429.126 599.522 C384.029 597.73, 337.186 599.74, 274.403 598.049 M273.51 601.124 C276.066 585.881, 276.816 573.618, 275.658 550.228" stroke="rgb(147, 112, 219)" stroke-width="1" fill="none"></path></g><g class="text-container" transform="matrix(0.999999 0 0 0.999999 352.047 565.609)"><text y="-10.1" style="font-style: normal;font-weight: 400;font-size: 16px;font-family: Comic Sans MS, cursive;" stroke="none" stroke-width="1px" fill="rgb(51, 51, 51)" text-anchor="middle" dominant-baseline="auto"><tspan class="text-outer-tspan" x="0" y="-0.1em" dy="1.1em" stroke="none" stroke-width="1px" fill="rgb(51, 51, 51)" text-anchor="middle" dominant-baseline="auto"><tspan font-style="normal" class="text-inner-tspan" font-weight="normal">Return</tspan><tspan font-style="normal" class="text-inner-tspan" font-weight="normal"> result</tspan></tspan></text></g></g></svg>