<?xml version="1.0" encoding="UTF-8"?>
<?xml-stylesheet href="https://cdnjs.cloudflare.com/ajax/libs/font-awesome/6.7.2/css/all.min.css" type="text/css"?>
<svg xmlns="http://www.w3.org/2000/svg" xmlns:xlink="http://www.w3.org/1999/xlink" width="100%" height="100%" stroke-linecap="round" id="graph-div" xmlns:ev="http://www.w3.org/2001/xml-events" style="overflow: hidden; max-width: 100%; touch-action: none; user-select: none; -webkit-user-drag: none; -webkit-tap-highlight-color: rgba(0, 0, 0, 0);"><g id="viewport-20250915151621531" class="svg-pan-zoom_viewport" transform="matrix(1.024583753983693,0,0,1.024583753983693,469.8945402184841,40.40027656056095)" style="transform: matrix(1.02458, 0, 0, 1.02458, 469.895, 40.4003);"><g><path d="M195.68 57 C196.088 57.945, 195.379 58.714, 195.68 61.167 M195.68 61.167 C196.051 65.807, 194.637 72.291, 195.75 81.417 M195.75 81.417 C196.736 91.048, 194.576 98.176, 196.031 99.917 M196.031 99.917 C195.963 101.407, 195.72 102.087, 196.101 103.501" stroke="rgb(51, 51, 51)" stroke-width="1" fill="none" stroke-dasharray="0.5"></path></g><g><path d="M192.213 99.38 C192.213 99.38, 192.213 99.38, 192.213 99.38 M192.213 99.38 C192.213 99.38, 192.213 99.38, 192.213 99.38 M192.828 101.725 C193.495 101.019, 194.063 100.322, 194.871 99.445 M192.862 101.401 C193.756 100.819, 194.185 100.122, 194.928 99.277 M193.521 103.504 C195.328 102.339, 196.186 100.64, 198.139 99.174 M193.463 103.357 C194.593 102.614, 195.844 101.156, 198.094 99.318 M194.698 105.299 C196.604 102.897, 199.023 101.581, 199.513 99.932 M195.341 104.664 C196.852 103.204, 198.353 101.525, 199.962 99.717 M195.797 106.862 C196.439 106.574, 196.713 106.283, 197.303 105.563 M195.957 107.054 C196.547 106.558, 196.963 105.997, 197.394 105.544" stroke="rgb(51, 51, 51)" stroke-width="1.037" fill="none"></path><path d="M200.75 100.259 C199.201 100.803, 198.574 104.223, 195.432 106.768 M196.485 107.829 C194.372 105.968, 193.282 102.645, 192.775 99.639 M191.577 99.362 C194.55 100.26, 195.187 99.651, 200.239 99.356" stroke="rgb(51, 51, 51)" stroke-width="0.8" fill="none" stroke-dasharray="0.8 0.5"></path></g><g><path d="M150.372 290.292 C147.674 293.502, 146.398 298.089, 141.114 303.927 M141.114 303.927 C132.368 315.675, 112.615 344.714, 104.082 363.882 M104.082 363.882 C95.432 382.14, 93.361 392.511, 94.824 399.183 M94.824 399.183 C94.874 401.024, 94.567 402.107, 94.824 404.6" stroke="rgb(51, 51, 51)" stroke-width="1" fill="none" stroke-dasharray="0.5"></path></g><g><path d="M91.134 400.287 C91.134 400.287, 91.134 400.287, 91.134 400.287 M91.134 400.287 C91.134 400.287, 91.134 400.287, 91.134 400.287 M91.952 402.248 C92.516 401.938, 92.571 401.318, 94.198 400.482 M91.787 402.538 C92.697 401.674, 93.297 400.78, 93.967 400.301 M92.769 404.164 C93.674 403.231, 95.095 401.878, 96.871 400.47 M92.365 404.249 C93.741 403.209, 95.219 402.172, 96.907 400.365 M94.178 406.428 C95.207 404.568, 97.953 401.502, 98.281 401.178 M94.186 406.116 C95.237 405.06, 96.588 403.456, 98.835 401.016 M94.895 407.934 C95.354 407.446, 95.848 406.968, 95.934 406.824 M94.69 408.145 C95.156 407.523, 95.733 406.93, 96.02 406.554" stroke="rgb(51, 51, 51)" stroke-width="0.852" fill="none"></path><path d="M98.993 399.835 C98.078 403.778, 97.083 404.907, 94.577 408.903 M94.473 408.16 C94.387 406.364, 92.823 403.287, 91.23 400.272 M90.118 400.714 C93.497 400.011, 95.596 400.567, 98.415 400.108" stroke="rgb(51, 51, 51)" stroke-width="0.8" fill="none" stroke-dasharray="0.8 0.5"></path></g><g><path d="M241.987 290.292 C245.299 295.138, 248.733 297.367, 251.079 303.927 M251.079 303.927 C259.532 318.187, 276.901 343.42, 287.444 363.882 M287.444 363.882 C295.83 382.267, 297.337 394.797, 296.535 399.183 M296.535 399.183 C296.504 401.08, 296.203 402.775, 296.535 404.6" stroke="rgb(51, 51, 51)" stroke-width="1" fill="none" stroke-dasharray="0.5"></path></g><g><path d="M292.496 400.65 C292.496 400.65, 292.496 400.65, 292.496 400.65 M292.496 400.65 C292.496 400.65, 292.496 400.65, 292.496 400.65 M293.194 401.292 C293.485 400.911, 293.725 400.817, 293.903 400.558 M293.272 401.28 C293.466 401.014, 293.691 400.725, 293.856 400.497 M293.746 402.473 C293.692 402.077, 294.485 401.692, 295.502 400.417 M293.457 402.527 C293.813 402.027, 294.284 401.568, 295.351 400.2 M294.203 403.561 C294.747 402.527, 295.529 401.304, 296.101 400.67 M294.144 403.273 C294.691 402.668, 295.131 402.464, 296.066 400.96 M293.933 404.778 C295.969 403.335, 296.237 401.441, 297.113 400.438 M294.447 404.842 C295.128 403.553, 295.95 402.437, 297.566 400.97 M295.011 405.232 C295.422 404.384, 296.473 403.183, 299.404 401.115 M295.2 405.4 C296.178 403.75, 297.229 402.595, 298.85 400.513 M295.743 407.15 C296.854 405.378, 296.833 403.984, 300.23 400.599 M295.458 406.762 C296.621 404.792, 297.345 403.542, 300.618 400.255 M296.766 407.088 C297.972 405.068, 299.902 403.643, 301.616 400.453 M296.387 407.242 C296.876 406.253, 298.24 404.436, 300.735 400.893 M296.561 408.889 C296.675 407.823, 297.856 407.263, 298.992 405.571 M296.182 408.869 C297.084 407.735, 298.242 406.515, 298.912 405.763" stroke="rgb(51, 51, 51)" stroke-width="0.898" fill="none"></path><path d="M301.219 400.873 C300.263 401.845, 298.529 404.666, 297.149 408.982 M296.215 408.229 C295.748 407.252, 294.055 404.825, 292.955 400.425 M293.204 400.515 C294.534 401.427, 296.679 401.095, 300.569 400.579" stroke="rgb(51, 51, 51)" stroke-width="0.8" fill="none" stroke-dasharray="0.8 0.5"></path></g><g><path d="M296.535 457.6 C296.218 459.415, 296.337 460.06, 296.535 461.767 M296.535 457.6 C296.614 459.25, 296.349 460.599, 296.535 461.767 M296.535 461.767 C294.984 464.222, 295.203 474.204, 296.535 481.933 M296.535 461.767 C295.585 468.062, 296.482 474.382, 296.535 481.933 M296.535 481.933 C298.305 489.121, 295.269 498.175, 296.535 500.1 M296.535 481.933 C296.316 489.233, 296.843 498.777, 296.535 500.1 M296.535 500.1 C296.634 501.128, 296.682 502.065, 296.535 503.6 M296.535 500.1 C296.569 501.158, 296.508 501.987, 296.535 503.6" stroke="rgb(51, 51, 51)" stroke-width="1" fill="none" stroke-dasharray="0.5"></path></g><g><path d="M292.495 499.645 C292.495 499.645, 292.495 499.645, 292.495 499.645 M292.495 499.645 C292.495 499.645, 292.495 499.645, 292.495 499.645 M293.286 501.481 C293.503 500.944, 294.304 500.67, 295.185 499.211 M293.212 501.59 C293.858 501.111, 294.185 500.577, 295.224 499.577 M294.718 503.394 C294.957 502.242, 295.653 501.89, 298.303 499.289 M294.348 503.699 C295.764 502.305, 296.778 500.526, 298.355 499.298 M295.957 505.626 C296.334 503.126, 298.553 502.002, 300.817 500.115 M295.339 505.068 C297.04 503.147, 298.578 501.921, 300.321 500.13 M296.433 507.281 C296.715 506.97, 296.81 506.825, 297.079 506.437 M296.493 507.238 C296.687 506.972, 296.85 506.743, 297.149 506.451" stroke="rgb(51, 51, 51)" stroke-width="1.345" fill="none"></path><path d="M300.078 500.237 C299.146 501.601, 298.109 502.867, 296.452 507.937 M297.258 507.983 C296.044 506.037, 294.306 503.523, 293.24 499.548 M292.339 499.883 C294.477 498.896, 298.261 499.213, 300.677 500.136" stroke="rgb(51, 51, 51)" stroke-width="0.8" fill="none" stroke-dasharray="0.8 0.5"></path></g><g><path d="M296.535 574.2 C296.785 575.526, 296.87 577.256, 296.535 578.367 M296.535 578.367 C296.209 581.186, 298.038 592.843, 296.535 598.533 M296.535 598.533 C295.303 604.858, 297.352 614.935, 296.535 616.7 M296.535 616.7 C296.541 618.056, 296.663 618.973, 296.535 620.2" stroke="rgb(51, 51, 51)" stroke-width="1" fill="none" stroke-dasharray="0.5"></path></g><g><path d="M292.386 616.331 C292.386 616.331, 292.386 616.331, 292.386 616.331 M292.386 616.331 C292.386 616.331, 292.386 616.331, 292.386 616.331 M293.641 617.678 C294.132 617.367, 295.057 616.733, 295.121 616.646 M293.697 617.788 C294.024 617.535, 294.43 617.186, 295.275 616.445 M294.06 620.497 C295.093 619.481, 296.155 618.467, 298.81 616.302 M294.148 619.881 C296.109 618.625, 297.53 616.959, 298.748 616.014 M296.015 621.506 C297.077 619.114, 299.968 617.511, 300.333 616.343 M295.303 621.768 C296.711 619.949, 298.432 618.898, 300.566 617.038 M296.282 623.614 C296.628 622.766, 297.23 622.527, 298.201 621.421 M296.102 623.564 C296.614 623.053, 297.208 622.738, 298.554 621.778" stroke="rgb(51, 51, 51)" stroke-width="1.672" fill="none"></path><path d="M301.022 616.818 C299.915 618.798, 298.144 621.685, 296.718 623.766 M297.326 624.244 C294.846 623.127, 294.06 619.735, 291.821 616.758 M292.108 616.219 C294.124 616.296, 295.516 615.631, 300.449 616.544" stroke="rgb(51, 51, 51)" stroke-width="0.8" fill="none" stroke-dasharray="0.8 0.5"></path></g><g class="text-container" transform="matrix(0.999999 0 0 0.999999 0.00000502297 0.000182712)"><text y="-10.1" style="font-style: normal;font-weight: 400;font-size: 16px;font-family: Comic Sans MS, cursive;" stroke="none" stroke-width="1px" fill="rgb(51, 51, 51)" text-anchor="start" dominant-baseline="auto"><tspan class="text-outer-tspan" x="0" y="-0.1em" dy="1.1em" stroke="none" stroke-width="1px" fill="rgb(51, 51, 51)" text-anchor="start" dominant-baseline="auto"></tspan></text></g><g><path d="M82.934 359.734 C82.934 359.734, 82.934 359.734, 82.934 359.734 M82.934 359.734 C82.934 359.734, 82.934 359.734, 82.934 359.734 M83.099 363.544 C83.34 362.713, 84.512 361.819, 85.561 359.488 M83.067 363.514 C83.667 362.73, 84.108 361.903, 85.216 360.03 M83.417 367.46 C83.65 366.951, 84.049 364.55, 86.71 360.265 M82.662 367.512 C84.351 364.427, 86.048 361.922, 87.527 359.779 M82.19 371.688 C85.129 367.319, 89.74 363.153, 89.509 360.328 M83.311 371.488 C85.373 368.239, 87.866 363.529, 90.769 359.004 M81.438 375.205 C86.88 371.944, 89.237 366.721, 90.977 359.211 M83.097 376.539 C86.419 370.221, 89.821 363.59, 92.15 359.473 M81.552 381.233 C86.742 372.674, 90.445 365.655, 94.112 360.269 M83.174 380.081 C86.765 371.671, 90.55 363.982, 94.546 360.436 M83.776 383.659 C89.851 374.277, 94.334 368.162, 96.463 359.457 M82.959 382.579 C88.019 374.917, 91.453 368.434, 96.589 360.085 M85.815 382.727 C90.168 374.383, 95.202 366.626, 98.807 358.953 M86.52 383.664 C89.933 374.893, 94.744 366.369, 99.226 359.528 M89.501 382.131 C91.13 376.195, 98.042 367.455, 103.127 361.64 M87.948 382.233 C93.883 374.693, 97.755 365.462, 100.846 360.014 M91.263 383.281 C94.962 375.251, 100.556 365.158, 104.81 360.728 M90.467 383.335 C93.433 376.767, 97.37 370.064, 103.309 360.759 M93.712 381.24 C93.343 380.575, 95.795 374.022, 103.66 364.981 M91.916 382.558 C96.332 375.708, 99.729 370.435, 104.191 363.849 M96.654 382.03 C99.232 375.961, 103.285 372.243, 102.701 367.436 M94.163 383.553 C97.402 378.115, 99.209 375.179, 104.179 367.325 M96.981 383.208 C98.435 380.871, 100.246 377.074, 102.577 372.284 M97.66 383.045 C98.664 379.194, 101.248 376.447, 103.888 371.117 M98.967 382.866 C100.622 380.995, 102.386 379.258, 103.275 376.732 M99.369 383.199 C100.555 381.622, 101.268 379.744, 103.202 375.88 M101.374 383.372 C101.99 382.385, 102.724 381.026, 103.521 380.081 M101.819 383.122 C102.387 381.943, 103.008 380.699, 103.867 379.677" stroke="rgba(232, 232, 232, 0.5)" stroke-width="0.904" fill="none"></path><path d="M81.766 361.076 C90.114 359.623, 98.605 358.592, 103.345 361.174 M103.45 358.685 C101.405 364.778, 101.295 375.012, 104.064 382.724 M101.817 383.277 C93.905 381.648, 87.208 383.784, 84.052 384.274 M83.442 382.21 C82.108 373.962, 84.676 364.619, 81.864 359.285" stroke="rgba(232, 232, 232, 0.5)" stroke-width="1" fill="none"></path></g><g class="text-container" transform="matrix(0.999999 0 0 0.999999 85.0117 360.6)"><text y="-10.1" style="font-style: normal;font-weight: 400;font-size: 16px;font-family: Comic Sans MS, cursive;" stroke="none" stroke-width="1px" fill="rgb(51, 51, 51)" text-anchor="start" dominant-baseline="auto"><tspan class="text-outer-tspan" x="0" y="-0.1em" dy="1.1em" stroke="none" stroke-width="1px" fill="rgb(51, 51, 51)" text-anchor="start" dominant-baseline="auto"><tspan font-style="normal" class="text-inner-tspan" font-weight="normal">نعم</tspan></tspan></text></g><g><path d="M288.077 359.73 C288.077 359.73, 288.077 359.73, 288.077 359.73 M288.077 359.73 C288.077 359.73, 288.077 359.73, 288.077 359.73 M288.375 364.344 C290.256 362.676, 291.145 360.25, 292.826 358.758 M288.2 364.867 C289.601 362.548, 290.873 360.709, 292.599 359.216 M287.795 370.099 C290.483 365.763, 293.248 363.899, 296.321 359.843 M288.061 369.283 C290.072 367.095, 291.141 364.922, 295.608 359.263 M288.352 374.448 C290.429 370.89, 294.035 366.058, 301.239 358.511 M287.972 373.317 C291.46 368.493, 294.78 364.825, 298.802 359.187 M288.832 377.124 C293.88 371.279, 299.419 365.876, 303.632 361.373 M288.75 378.676 C290.576 374.413, 294.447 370.841, 302.021 360.406 M287.406 381.736 C291.765 378.605, 295.319 375.161, 303.051 364.375 M287.999 383.608 C293.377 375.863, 299.32 369.432, 301.878 366.065 M293.527 382.771 C294.986 377.41, 300.598 374.409, 303.303 368.942 M292.265 382.352 C296.154 378.419, 299.521 375.363, 302.629 370.355 M295.303 383.666 C298.308 380.97, 301.759 377.015, 302.439 375.869 M296.012 382.861 C297.949 381.047, 298.671 379.662, 302.296 375.774 M300.549 382.752 C301.18 381.897, 301.887 380.608, 302.046 380.524 M300.3 382.587 C300.81 382.199, 301.048 381.548, 302.255 380.278" stroke="rgba(232, 232, 232, 0.5)" stroke-width="1.179" fill="none"></path><path d="M288.925 359.95 C291.123 360.2, 296.244 360.826, 300.222 360.439 M287.783 360.029 C291.901 359.807, 294.687 360.093, 300.389 359.215 M298.994 358.32 C300.062 367.145, 300.217 376.254, 301.508 380.936 M300.582 359.503 C299.793 364.233, 300.666 368.696, 300.07 383.068 M301.615 382.286 C296.769 382.43, 291.505 383.359, 288.45 382.079 M300.879 382.463 C297.247 382.907, 295.169 382.166, 288.519 382.771 M288.881 382.054 C287.462 374.339, 288.563 368.351, 287.96 359.278 M287.765 382.611 C288.193 375.164, 289.137 367.774, 287.561 358.866" stroke="rgba(232, 232, 232, 0.5)" stroke-width="1" fill="none"></path></g><g class="text-container" transform="matrix(0.999999 0 0 0.999999 290.183 360.6)"><text y="-10.1" style="font-style: normal;font-weight: 400;font-size: 16px;font-family: Comic Sans MS, cursive;" stroke="none" stroke-width="1px" fill="rgb(51, 51, 51)" text-anchor="start" dominant-baseline="auto"><tspan class="text-outer-tspan" x="0" y="-0.1em" dy="1.1em" stroke="none" stroke-width="1px" fill="rgb(51, 51, 51)" text-anchor="start" dominant-baseline="auto"><tspan font-style="normal" class="text-inner-tspan" font-weight="normal">لا</tspan></tspan></text></g><g class="text-container" transform="matrix(0.999999 0 0 0.999999 0.00000502297 0.000182712)"><text y="-10.1" style="font-style: normal;font-weight: 400;font-size: 16px;font-family: Comic Sans MS, cursive;" stroke="none" stroke-width="1px" fill="rgb(51, 51, 51)" text-anchor="start" dominant-baseline="auto"><tspan class="text-outer-tspan" x="0" y="-0.1em" dy="1.1em" stroke="none" stroke-width="1px" fill="rgb(51, 51, 51)" text-anchor="start" dominant-baseline="auto"></tspan></text></g><g class="text-container" transform="matrix(0.999999 0 0 0.999999 0.00000502297 0.000182712)"><text y="-10.1" style="font-style: normal;font-weight: 400;font-size: 16px;font-family: Comic Sans MS, cursive;" stroke="none" stroke-width="1px" fill="rgb(51, 51, 51)" text-anchor="start" dominant-baseline="auto"><tspan class="text-outer-tspan" x="0" y="-0.1em" dy="1.1em" stroke="none" stroke-width="1px" fill="rgb(51, 51, 51)" text-anchor="start" dominant-baseline="auto"></tspan></text></g><g><path d="M142.107 7.684 C142.107 7.684, 142.107 7.684, 142.107 7.684 M142.107 7.684 C142.107 7.684, 142.107 7.684, 142.107 7.684 M141.722 10.46 C142.975 9.705, 142.948 9.019, 145.205 7.91 M142.154 10.345 C143.116 9.624, 144.102 8.418, 144.823 7.715 M142.354 12.7 C143.867 12.468, 143.905 11.035, 148.297 7.771 M142.058 13.015 C143.753 11.832, 145.569 9.812, 147.969 7.559 M140.596 16.064 C144.348 12.813, 147.366 9.68, 151.379 7.736 M141.438 16.421 C145.234 13.529, 147.171 11.176, 150.645 8.153 M142.815 20.57 C145.06 13.716, 150.788 11.407, 153.293 8.249 M141.335 19.199 C144.626 15.084, 147.616 12.625, 153.298 7.921 M143.375 23.429 C145.671 15.417, 151.359 11.585, 156.94 8.649 M140.612 21.139 C145.144 18.33, 151.064 13.57, 156.45 9.06 M143.01 24.426 C147.349 19.986, 150.979 13.219, 158.772 6.962 M140.47 25.257 C144.784 21.743, 149.211 17.628, 159.688 8.464 M141.985 28.095 C147.612 21.487, 152.712 16.172, 162.815 6.23 M142.893 25.798 C149.141 20.596, 157.819 13.573, 161.963 8.453 M141.581 27.897 C147.327 24.016, 155.172 19.5, 165.877 6.72 M141.686 30.074 C150.493 21.123, 159.97 13.087, 165.746 7.295 M141.753 31.416 C151.931 25.186, 160.1 17.157, 169.421 7.734 M141.29 32.911 C149.476 25.763, 155.194 19.894, 168.152 7.069 M141.089 36.804 C148.281 28.748, 158.603 20.212, 171.05 9.637 M140.786 35.646 C152.818 26.242, 161.443 16.561, 170.78 8.759 M142.378 36.363 C152.353 26.094, 164.986 13.133, 174.809 6.434 M141.521 37.788 C151.316 30.265, 159.539 21.393, 173.8 9.063 M140.628 41.037 C148.272 33.955, 155.28 26.702, 176.713 7.069 M141.731 40.332 C149.393 33.64, 156.802 26.007, 177.177 8.686 M143.356 45.574 C148.967 33.959, 157.882 28.928, 181.103 7.886 M141.653 43.003 C152.521 31.481, 164.673 21.377, 180.314 6.975 M140.481 46.409 C155.432 29.773, 174.285 17.325, 184.367 9.463 M142.881 46.117 C151.931 37.198, 161.26 27.606, 182.83 7.297 M142.414 49.948 C152.136 40.937, 162.685 29.241, 187.553 9.616 M141.764 49.118 C152.196 37.789, 163.823 28.751, 185.948 7.693 M141.516 52.63 C156.846 36.219, 172.754 22.438, 186.802 7.556 M142.22 51.675 C153.585 41.112, 164.199 30.043, 188.857 8.681 M140.338 55.802 C161.685 37.414, 181.746 19.388, 189.977 7.8 M141.337 53.441 C156.42 41.353, 171.616 26.805, 191.936 7.924 M141.274 56.963 C150.875 44.585, 166.086 35.235, 193.581 9.362 M141.951 57.943 C155.742 44.11, 167.344 32.108, 195.127 7.914 M144.33 56.999 C161.018 44.353, 173.533 27.832, 199.248 6.651 M144.621 56.886 C158.206 44.392, 173.483 31.179, 197.787 7.459 M146.119 58.706 C168.307 37.386, 188.546 16.936, 199.793 8.108 M148.585 56.271 C167.435 38.92, 188.268 21.126, 200.914 7.076 M149.445 56.376 C166.888 42.423, 183.113 28.381, 204.145 9.364 M150.024 56.317 C169.135 39.77, 188.942 20.037, 202.897 7.576 M152.913 55.39 C170.365 43.867, 183.807 26.861, 207.62 6.359 M153.891 57.677 C170.246 40.725, 186.944 24.714, 206.285 8.242 M156.164 56.283 C174.625 42.681, 190.525 24.328, 211.285 8.705 M156.411 57.06 C177.678 37.94, 198.27 19.71, 208.98 8.722 M158.116 57.475 C175.348 41.261, 195.777 25.376, 212.041 10.12 M158.576 56.729 C176.619 40.748, 194.682 25.303, 211.411 8.403 M163.118 57.352 C175.547 42.53, 189.457 29.442, 216.854 10.167 M161.352 57.462 C179.012 41.857, 196.731 25.458, 215.566 9.24 M164.396 56.68 C184.786 39.214, 203.76 22.373, 218.983 5.862 M164.74 56.705 C181.536 42.415, 197.662 27.366, 219.152 8.218 M168.27 57.353 C181.422 46.446, 196.371 33.652, 219.536 7.586 M167.847 57.77 C186.077 41.318, 203.706 24.449, 221.374 7.025 M171.714 58.648 C183.979 45.389, 199.203 33.184, 223.96 8.151 M171.447 55.964 C190.169 39.918, 207.963 21.881, 224.682 8.506 M172.326 55.396 C191.05 40.414, 209.003 22.362, 225.536 6.48 M173.735 57.634 C184.87 45.794, 197.049 35.984, 226.929 8.349 M175.275 56.053 C197.828 35.713, 219.819 16.441, 229.113 9.254 M176.538 56.702 C194.588 40.142, 213.267 23.06, 230.502 7.331 M181.07 56.7 C197.426 40.277, 219.887 20.401, 233.887 8.006 M180.008 57.589 C195.257 42.774, 210.94 28.594, 231.793 9.198 M182.43 57.095 C196.083 45.097, 208.969 35.044, 237.709 8.041 M183.592 57.909 C193.669 46.622, 205.942 35.323, 235.515 7.813 M184.604 57.872 C199.338 44.411, 211.945 33.033, 240.101 7.1 M185.325 56.332 C204.643 38.024, 223.856 20.699, 238.398 8.384 M188.483 58.107 C204.995 41.681, 225.342 24.408, 240.617 9.748 M188.147 57.633 C206.325 39.923, 223.647 25.256, 241.435 7.819 M193.171 58.838 C213.607 36.542, 235.388 17.283, 244.806 6.637 M192.358 57.155 C211.552 38.261, 232.673 18.657, 245.026 8.569 M192.815 58.268 C212.975 36.34, 234.487 20.517, 249.307 6.908 M195.682 56.795 C215.033 38.133, 235.294 18.785, 246.618 8.955 M197.4 59.166 C212.405 41.026, 228.423 26.865, 249.818 7.898 M198.152 57.408 C214.932 41.452, 231.433 25.401, 250.603 7.57 M201.996 57.948 C215.739 43.444, 234.081 23.936, 249.42 10.952 M201.054 57.951 C212.975 45.116, 224.248 34.642, 250.311 11.193 M204.198 56.516 C222.613 40.488, 239.379 25.074, 249.315 12.566 M204.28 57.701 C214.501 47.572, 225.058 37.88, 251.031 13.169 M205.392 55.212 C222.656 44.586, 235.181 27.914, 251.006 16.32 M207.523 56.632 C222.303 42.661, 237.852 29.413, 250.406 17.297 M207.783 55.488 C219.504 48.699, 228.282 38.239, 249.048 21.058 M209.385 57.635 C225.896 42.726, 241.257 27.647, 250.911 18.716 M214.182 57.443 C228.156 42.066, 240.403 30.547, 250.078 22.528 M211.713 57.009 C226.65 44.218, 241.039 29.766, 249.785 23.084 M217.127 57.891 C223.263 51.827, 228.843 45.731, 248.512 25.644 M215.961 56.67 C223.896 49.116, 232.875 40.699, 249.024 25.492 M217.604 57.823 C227.995 48.31, 238.461 39.979, 249.499 26.809 M217.102 57.231 C225.268 51.256, 233.588 43.537, 250.577 27.447 M221.516 57.887 C229.897 47.951, 240.091 40.113, 250.657 30.129 M221.137 56.515 C229.151 49.117, 239.339 39.593, 249.706 30.636 M226.005 57.129 C228.71 51.169, 235.253 45.46, 251.777 31.766 M225.446 56.582 C233.455 49.525, 240.419 41.066, 250.964 32.093 M226.744 55.602 C231.185 51.114, 238.365 47.614, 251.422 35.725 M226.297 57.373 C236.385 48.704, 245.723 41.401, 250.918 36.339 M228.968 57.096 C236.413 49.697, 241.868 46.155, 249.1 37.355 M229.323 57.553 C237.672 50.385, 245.47 41.974, 248.971 37.989 M232.005 58.61 C235.795 53.265, 242.929 47.952, 249.386 42.639 M233.136 57.506 C239.299 51.503, 244.991 45.434, 250.123 41.538 M237.031 56.662 C241.147 52.072, 246.077 49.534, 250.25 43.564 M236.318 56.943 C240.072 53.329, 242.333 50.604, 250.901 44.601 M237.248 56.652 C240.781 52.507, 247.393 49.218, 249.104 47.206 M238.419 57.596 C241.16 55.262, 243.409 51.63, 249.722 45.832 M241.298 56.835 C244.75 55.69, 246.034 52.449, 250.993 49.019 M242.256 56.75 C244.313 54.379, 246.207 53.124, 250.722 49.48 M244.56 56.177 C246.095 54.981, 248.529 54.601, 249.438 52.155 M244.675 56.815 C246.476 55.532, 247.59 54.621, 250.437 51.918 M247.754 56.74 C248.529 56.438, 249.58 55.166, 249.715 55.161 M247.698 56.876 C248.368 56.348, 249.126 55.809, 250.05 54.803" stroke="rgb(236, 236, 255)" stroke-width="1.254" fill="none"></path><path d="M141.418 8.767 C168.747 7.101, 195.684 8.183, 250.484 7.283 M250.167 9.617 C250.139 29.249, 249.991 47.143, 250.368 55.335 M248.36 56.48 C212.393 58.042, 176.992 59.776, 140.346 55.117 M139.807 57.665 C142.704 42.223, 142.66 28.118, 143.547 8.385" stroke="rgb(147, 112, 219)" stroke-width="1" fill="none"></path></g><g class="text-container" transform="matrix(0.999999 0 0 0.999999 195.68 23.0002)"><text y="-10.1" style="font-style: normal;font-weight: 400;font-size: 16px;font-family: Comic Sans MS, cursive;" stroke="none" stroke-width="1px" fill="rgb(51, 51, 51)" text-anchor="middle" dominant-baseline="auto"><tspan class="text-outer-tspan" x="0" y="-0.1em" dy="1.1em" stroke="none" stroke-width="1px" fill="rgb(51, 51, 51)" text-anchor="middle" dominant-baseline="auto"><tspan font-style="normal" class="text-inner-tspan" font-weight="normal">المدخلات</tspan></tspan></text></g><g><path d="M81.738 221.453 C81.738 221.453, 81.738 221.453, 81.738 221.453 M81.738 221.453 C81.738 221.453, 81.738 221.453, 81.738 221.453 M84.263 225.371 C106.101 200.417, 125.234 178.795, 154.067 147.413 M85.36 224.098 C106.694 200.501, 126.295 178.412, 156.197 148.804 M88.332 227.685 C110.539 200.29, 133.923 176.257, 197.168 106.388 M87.414 227.851 C130.215 181.904, 171.666 136.42, 197 107.539 M89.04 230.397 C116.569 200.289, 144.947 170.593, 201.437 110.779 M91.538 230.477 C124.036 191.989, 159.615 153.604, 200.336 110.067 M92.947 234.042 C131.342 187.077, 171.513 146.023, 201.342 112.368 M93.045 232.85 C126.413 197.147, 159.278 161.502, 203.665 113.938 M95.191 235.429 C132.952 194.646, 170.192 154.877, 207.526 115.911 M95.888 235.862 C130.393 198.427, 166.537 160.606, 205.486 116.489 M100.247 238.96 C142.181 192.652, 183.827 142.741, 210.291 118.194 M97.864 238.627 C121.334 213.216, 144.502 187.477, 208.027 119.24 M102.202 241.635 C134.321 207.338, 166.517 172.465, 210.853 122.989 M102.38 240.941 C141.673 195.699, 182.859 153.219, 210.669 123.064 M103.719 243.822 C143.423 202.212, 180.183 158.302, 214.683 126.446 M104.986 243.847 C130.622 215.686, 156.326 187.558, 213.612 125.222 M108.119 248.278 C142.124 211.489, 173.752 175.015, 218.289 126.319 M107.19 246.214 C133.579 216.53, 160.572 188.563, 218.283 127.37 M109.818 248.413 C145.985 209.409, 182.049 170.997, 219.269 132.067 M110.883 249.315 C144.518 212.548, 179.279 176.566, 220.767 131.31 M115.14 252.57 C140.353 224.889, 162.334 197.285, 221.083 132.353 M113.952 251.593 C153.72 209.389, 193.357 168.08, 222.364 133.743 M114.278 254.708 C149.387 216.494, 186.402 178.983, 225.351 134.675 M114.783 255.22 C151.253 217.726, 185.207 180.526, 226.273 136.491 M118.352 259.118 C159.799 212.47, 197.663 169.576, 227.751 140.447 M118.055 258.431 C155.792 220.1, 190.883 181.502, 229.235 139.632 M122.406 260.72 C144.014 238.718, 167.861 212.382, 231.538 143.607 M121.375 261.508 C145.774 233.784, 170.26 208.81, 232.443 141.202 M124.248 261.739 C155.292 231.915, 185.74 198.264, 233.533 143.693 M123.959 263.902 C160.502 223.414, 197.256 182.902, 234.729 144.536 M128.592 265.093 C170.12 222.576, 210.708 173.807, 236.363 146.824 M126.915 266.469 C157.999 235.681, 186.023 204.379, 236.606 147.534 M131.829 269.141 C165.247 231.926, 197.899 194.397, 241.469 149.444 M131.255 269.907 C165.062 232, 199.017 192.672, 239.73 150.894 M131.79 272.374 C176.013 226.358, 220.921 178.841, 242.442 153.392 M131.931 273.416 C172.748 229.482, 212.477 187.622, 241.952 154.416 M133.554 275.313 C159.088 252.252, 181.381 225.534, 246.809 154.629 M135.063 275.572 C170.816 234.866, 207.216 196.212, 245.87 156.626 M140.394 277.819 C180.807 237.24, 217.199 191.599, 249.778 159.723 M138.132 278.933 C174.647 237.544, 210.93 197.645, 248.204 158.128 M140.728 279.542 C174.626 244.172, 207.197 208.922, 251.949 161.386 M141.782 281.181 C170.43 248.692, 200.886 215.162, 251.066 161.047 M144.632 282.857 C174.71 250.961, 199.68 221.794, 254.993 162.619 M143.617 283.27 C177.665 247.349, 211.288 211.661, 254.071 164.898 M149.161 286.621 C182.778 243.897, 220.804 207.325, 255.884 166.039 M147.294 286.872 C189.576 239.687, 232.211 193.385, 255.673 167.656 M150.514 287.643 C182.607 252.205, 217.072 215.15, 259.015 171.73 M149.711 289.076 C181.557 255.171, 213.584 219.381, 259.549 170.393 M150.833 291.139 C186.456 258.815, 217.229 222.461, 263.075 172.341 M151.579 291.449 C175.225 266.315, 197.941 240.434, 262.259 172.872 M153.855 296.708 C181.333 269.353, 208.306 240.941, 266.84 174.466 M155.881 294.275 C190.112 257.972, 225.875 220.228, 264.796 176.086 M156.561 299 C180.681 272.915, 205.731 247.998, 270.077 179.67 M159.119 298.373 C183.657 271.535, 209.677 242.594, 269.312 179.325 M162.973 298.742 C203.336 258.236, 240.733 212.492, 272.497 183.201 M161.916 299.696 C193.056 265.261, 226.835 229.119, 271.025 181.06 M162.291 301.418 C200.227 263.29, 236.784 221.179, 274.871 185.246 M164.868 303.317 C194.5 269.642, 224.955 236.278, 274.918 185.184 M165.519 304.146 C208.406 262.985, 246.939 219.449, 278.424 187.426 M166.418 304.959 C200.331 270.476, 233.59 233.805, 276.847 187.812 M169.971 309.432 C200.95 272.09, 236.896 233.436, 278.387 188.524 M169.314 310.336 C205.483 271.536, 241.514 231.857, 278.802 191.241 M170.805 313.969 C212.931 271.767, 247.657 230.103, 281.929 191.684 M172.371 311.378 C197.394 285.619, 222.734 258.445, 282.562 193.423 M173.311 315.798 C204.773 280.623, 232.537 250.872, 285.949 194.505 M175.799 315.516 C208.735 277.945, 242.743 241.691, 286.125 196.102 M179.166 316.172 C212.587 279.99, 247.206 240.752, 286.901 198.32 M178.606 317.189 C213.333 279.824, 248.5 242.038, 288.119 199.285 M181.845 319.12 C218.107 279.308, 254.047 238.751, 290.014 201.384 M180.488 319.886 C206.396 293.449, 233.333 265.07, 292.065 202.233 M183.742 323.634 C221.624 283.188, 258.317 241.016, 293.425 204.595 M183.024 322.271 C225.305 279.789, 266.955 235.989, 294.339 203.843 M185.256 324.464 C214.815 294.954, 243.9 264.334, 296.937 205.684 M186.474 327.253 C209.649 301.351, 233.168 274.276, 296.365 206.797 M187.524 327.686 C218.513 297.833, 244.403 268.248, 299.262 212.038 M189.077 329.568 C224.805 290.163, 260.317 251.775, 300.045 211.147 M193.851 332.353 C231.928 287.22, 273.485 244.203, 302.227 213.03 M191.511 331.491 C232.907 287.481, 272.239 245.256, 301.795 213.748 M193.228 335.645 C225.964 299.879, 258.242 265.545, 306.263 214.284 M194.805 335.024 C224.217 302.851, 255.248 269.175, 305.483 215.297 M233.624 299.054 C254.142 272.968, 277.528 248.66, 308.835 220.263 M233.039 299.33 C250.703 280.517, 268.961 261.234, 307.964 217.538" stroke="rgb(236, 236, 255)" stroke-width="1.222" fill="none"></path><path d="M194.233 335.298 C235.214 299.04, 273.666 259.612, 311.984 221.517 M310.103 222.896 C283.037 193.618, 254.694 164.739, 196.845 105.557 M195.42 107.839 C169.514 137.184, 137.533 163.892, 80.519 222.112 M82.507 222.466 C116.324 254.05, 150.072 285.481, 196.517 335.397" stroke="rgb(147, 112, 219)" stroke-width="1" fill="none"></path></g><g class="text-container" transform="matrix(0.999999 0 0 0.999999 195.68 203)"><text y="-10.1" style="font-style: normal;font-weight: 400;font-size: 16px;font-family: Comic Sans MS, cursive;" stroke="none" stroke-width="1px" fill="rgb(51, 51, 51)" text-anchor="middle" dominant-baseline="auto"><tspan class="text-outer-tspan" x="0" y="-0.1em" dy="1.1em" stroke="none" stroke-width="1px" fill="rgb(51, 51, 51)" text-anchor="middle" dominant-baseline="auto"><tspan font-style="normal" class="text-inner-tspan" font-weight="normal">هل</tspan><tspan font-style="normal" class="text-inner-tspan" font-weight="normal"> المدخلات</tspan><tspan font-style="normal" class="text-inner-tspan" font-weight="normal"> موجودة</tspan><tspan font-style="normal" class="text-inner-tspan" font-weight="normal"> في</tspan><tspan font-style="normal" class="text-inner-tspan" font-weight="normal"> ذاكرة</tspan></tspan><tspan class="text-outer-tspan" x="0" y="1em" dy="1.1em" stroke="none" stroke-width="1px" fill="rgb(51, 51, 51)" text-anchor="middle" dominant-baseline="auto"><tspan font-style="normal" class="text-inner-tspan" font-weight="normal">التخزين</tspan><tspan font-style="normal" class="text-inner-tspan" font-weight="normal"> المؤقت؟</tspan></tspan></text></g><g><path d="M8.288 408.236 C8.288 408.236, 8.288 408.236, 8.288 408.236 M8.288 408.236 C8.288 408.236, 8.288 408.236, 8.288 408.236 M7.381 415.555 C9.765 413.604, 10.497 410.615, 13.125 408.47 M7.655 415.575 C9.574 413.119, 11.698 410.127, 13.648 408.156 M7.838 423.306 C13.61 416.259, 16.461 412.216, 19.336 408.099 M8.072 421.874 C9.422 418.621, 13.159 414.906, 18.56 408.63 M7.26 429.873 C14.37 420.093, 17.536 412.218, 24.603 408.739 M8.68 429.02 C13.241 421.145, 19.507 414.493, 23.222 409.275 M8.022 434.049 C15.706 424.146, 24.162 414.9, 28.062 407.412 M7.699 434.101 C14.443 425.703, 20.1 417.6, 27.943 408.911 M9.329 441.923 C12.851 435.408, 18.029 425.753, 34.211 407.108 M7.104 441.75 C15.916 432.667, 22.521 422.603, 33.073 409.468 M8.737 449.063 C18.185 432.299, 31.676 418.004, 37.979 407.255 M8.809 446.514 C16.232 439.276, 23.336 428.26, 38.332 408.831 M8.918 454.8 C17.826 442.585, 23.454 435.341, 43.814 407.675 M8.437 453.142 C14.598 444.614, 22.318 435.504, 44.849 408.434 M7.899 457.512 C25.777 438.835, 40.008 422.522, 49.699 410.307 M9.681 457.853 C21.463 443.299, 34.711 427.7, 48.988 407.983 M14.954 459.8 C23.882 443.576, 37.24 431.101, 55.547 407.511 M14.751 458.354 C25.492 443.057, 37.055 430.403, 53.112 408.641 M20.389 459.757 C31.403 445.137, 41.317 428.997, 57.949 406.889 M20.666 458.127 C31.53 442.068, 43.555 427.821, 59.054 409.076 M26.514 459.364 C40.576 442.326, 51.852 421.098, 64.891 407.457 M25.627 457.947 C38.136 440.936, 50.554 425.97, 63.12 409.394 M30.956 459.471 C44.758 437.729, 59.24 422.213, 69.547 406.933 M29.967 457.31 C38.908 446.818, 45.635 438.398, 68.606 407.408 M35.298 458.356 C45.09 443.36, 57.677 432.238, 75.674 409.163 M36.395 457.937 C49.356 441.364, 62.168 424.287, 74.824 408.933 M39.805 457.213 C48.469 446.02, 57.035 437.824, 80.165 407.643 M40.512 458.732 C56.369 438.352, 70.291 418.882, 78.938 407.865 M43.641 459.826 C62.215 439.9, 73.538 419.517, 84.173 407.335 M44.943 458.105 C55.311 444.323, 66.348 431.658, 83.693 407.694 M50.901 458.562 C62.024 444.963, 73.767 426.168, 90.756 407.639 M50.898 457.725 C65.633 439.29, 80.007 419.342, 89.184 409.093 M56.436 458.899 C65.968 444.611, 76.727 433.274, 95.701 410 M56.189 457.546 C69.124 441.957, 82.638 425.258, 93.952 407.964 M61.537 455.761 C69.747 446.998, 77.836 434.213, 98.589 408.614 M60.468 456.977 C72.595 442.838, 86.225 426.845, 100.165 407.655 M65.936 455.809 C81.237 440.844, 95.766 420.38, 106.423 409.515 M65.785 458.215 C78.424 441.819, 90.458 425.886, 104.242 408.433 M71.333 457.458 C83.983 438.949, 99.837 423.247, 111.416 407.497 M71.684 458.172 C78.7 446.441, 88.01 436.993, 109.966 407.948 M75.64 458.098 C86.637 447.417, 95.719 431.229, 116.889 407.077 M76.723 458.082 C89.068 440.438, 102.947 423.446, 114.802 409.246 M80.137 458.739 C92.839 443.466, 104.084 424.797, 121.592 408.299 M81.908 458.375 C89.825 447.747, 97.654 436.813, 120.451 408.914 M87.344 458.798 C97.171 444.647, 109.164 428.749, 123.865 410.734 M86.211 458.311 C99.598 440.689, 115.138 421.546, 125.611 409.255 M90.228 458.757 C103.755 444.463, 111.926 431.893, 128.976 410.241 M92.222 457.289 C107.156 439.057, 122.849 420.375, 129.417 408.249 M95.984 456.533 C108.339 443.109, 117.434 431.608, 135.978 406.397 M97.503 457.987 C107.019 444.876, 117.297 431.676, 135.666 409.148 M100.956 456.628 C114.355 437.875, 129.349 421.603, 140.538 409.126 M101.468 457.8 C111.7 445.947, 119.784 433.924, 141.064 408.833 M105.316 459.302 C116.24 448.556, 124.533 435.495, 144.047 406.596 M105.905 458.753 C121.665 438.289, 137.641 419.942, 145.753 407.7 M112.458 457.928 C127.494 439.367, 143.363 419.442, 150.077 407.139 M112.112 457.752 C124.176 443.921, 136.49 427.081, 151.588 408.046 M117.164 458.302 C130.7 442.077, 140.926 426.381, 156.599 407.093 M115.948 458.166 C131.069 440.572, 145.974 420.563, 156.276 409.818 M121.213 456.516 C137.527 439.303, 152.64 419.11, 159.819 409.703 M122.978 456.861 C130.394 447.849, 138.229 436.589, 161.582 408.979 M129.125 457.161 C138.46 441.776, 152.153 425.308, 164.798 407.266 M127.048 457.447 C140.378 440.662, 152.519 425.608, 167.121 407.688 M133.757 455.958 C146.755 436.169, 161.415 420.444, 170.368 407.009 M133.028 457.887 C143.536 443.074, 155.917 427.529, 171.208 407.915 M136.109 459.88 C151.119 440.545, 168.547 420.331, 176.713 408.194 M136.592 457.172 C149.406 443.901, 160.076 429.385, 175.758 408.224 M144.067 459.599 C154.117 440.89, 167.659 423.381, 182.566 410.265 M141.409 457.786 C157.154 438.95, 173.485 420.073, 180.779 408.012 M145.409 458.895 C158.034 444.558, 171.448 429.569, 180.425 413.736 M146.644 459.042 C158.121 446.125, 167.296 431.513, 181.996 415.293 M153.426 455.602 C162.189 443.137, 171.452 433.803, 182.15 420.507 M152.319 457.777 C163.593 442.489, 176.787 428.055, 181.292 420.27 M156.431 458.87 C163.035 450.895, 168.985 445.096, 180.655 427.863 M158.528 458.082 C165.804 447.465, 174.308 438.161, 182.431 427.969 M160.866 458.553 C167.547 448.553, 174.612 441.741, 183.174 432.233 M162.001 457.978 C170.474 447.946, 178.548 438.683, 182.351 434.131 M167.732 456.038 C172.363 450.359, 177.642 444.271, 181.721 440.028 M168.527 458.917 C170.227 452.641, 175.08 448.835, 181.165 439.136 M171.4 458.867 C177.251 452.26, 179.135 450.351, 183.08 447.55 M173.286 457.369 C174.592 455.633, 176.87 452.064, 181.676 446.092 M177.175 457.826 C179.531 455.856, 181.472 453.613, 182.115 453.31 M177.521 458.146 C178.895 457.127, 179.79 455.916, 182.018 452.979" stroke="rgb(236, 236, 255)" stroke-width="2.787" fill="none"></path><path d="M8.527 408.785 C65.505 406.77, 120.861 406.488, 181.58 410.339 M183.338 408.177 C182.025 425.044, 179.842 441.409, 179.742 457.648 M181.018 459.185 C131.304 458.157, 83.582 457.028, 8.169 457.716 M6.86 459.254 C9.523 444.151, 6.33 429.268, 8.841 407.232" stroke="rgb(147, 112, 219)" stroke-width="1" fill="none"></path></g><g class="text-container" transform="matrix(0.999999 0 0 0.999999 94.8242 423.6)"><text y="-10.1" style="font-style: normal;font-weight: 400;font-size: 16px;font-family: Comic Sans MS, cursive;" stroke="none" stroke-width="1px" fill="rgb(51, 51, 51)" text-anchor="middle" dominant-baseline="auto"><tspan class="text-outer-tspan" x="0" y="-0.1em" dy="1.1em" stroke="none" stroke-width="1px" fill="rgb(51, 51, 51)" text-anchor="middle" dominant-baseline="auto"><tspan font-style="normal" class="text-inner-tspan" font-weight="normal">إرجاع</tspan><tspan font-style="normal" class="text-inner-tspan" font-weight="normal"> النتيجة</tspan><tspan font-style="normal" class="text-inner-tspan" font-weight="normal"> المخزنة</tspan></tspan></text></g><g><path d="M231.723 408.503 C231.723 408.503, 231.723 408.503, 231.723 408.503 M231.723 408.503 C231.723 408.503, 231.723 408.503, 231.723 408.503 M231.316 413.06 C232.483 412.262, 233.405 411.646, 235.393 408.596 M231.883 413.605 C232.504 412.037, 233.454 410.694, 235.177 408.898 M231.495 417.581 C232.168 416.197, 234.562 414.099, 239.295 409.813 M231.233 418.894 C234.609 415.003, 236.898 411.592, 239.111 408.548 M231.546 422.189 C232.792 419.461, 236.887 416.992, 241.431 408.082 M232.388 423.166 C233.859 419.192, 238.471 415.583, 243.931 409.156 M230.616 428.312 C235.425 419.704, 242.774 415.977, 246.247 409.337 M232.131 428.021 C236.635 421.963, 241.98 414.867, 247.448 409.57 M231.855 434.784 C238.186 425.547, 243.62 414.729, 250.826 408.476 M231.998 433.193 C236.117 427.453, 239.597 421.781, 250.746 408.728 M233.388 436.61 C237.373 432.438, 240.412 424.839, 254.669 406.367 M231.483 439.213 C237.431 429.405, 245.33 421.496, 254.304 408.473 M229.999 444.413 C238.473 435.565, 245.492 426.885, 257.921 408.799 M232.407 442.933 C237.649 435.227, 244.304 427.571, 258.017 409.243 M231.213 448.241 C238.604 437.221, 246.04 430.084, 261.053 407.605 M232.02 447.579 C240.742 437.366, 247.996 426.375, 262.654 408.984 M230.589 454.07 C243.891 436.334, 260.367 416.897, 264.095 409.544 M231.147 451.893 C239.258 442.734, 249.115 431.429, 266.689 408.822 M233.662 455.976 C247.347 436.229, 261.049 418.912, 268.401 406.906 M230.822 457.497 C242.26 443.225, 253.294 429.472, 269.687 409.102 M233.567 457.116 C247.733 444.909, 256.285 428.852, 274.399 409.145 M235.035 458.4 C246.124 445.303, 255.837 430.934, 273.179 408.188 M238.458 458.867 C254.261 440.015, 269.548 420.845, 277.635 407.138 M238.685 457.024 C249.368 444.237, 257.995 432.744, 278.124 408.949 M244.478 458.642 C251.1 446.48, 261.603 433.582, 282.812 409.212 M242.394 456.659 C252.179 445.669, 261.537 433.542, 281.902 409.081 M246.913 456.941 C260.586 443.752, 272.204 426.29, 286.244 409.639 M245.791 458.303 C255.181 445.58, 263.811 435.9, 284.64 408.796 M252.18 456.612 C259.415 445.502, 266.704 433.879, 290.095 407.141 M251.38 458.233 C263.818 439.53, 277.483 422.885, 288.962 409.538 M253.171 457.435 C261.098 446.518, 272.304 438.182, 292.797 409.298 M255.367 456.746 C262.264 447.143, 270.288 436.88, 291.771 409.299 M259.936 459.501 C270.804 442.944, 280.154 429.398, 296.825 408.165 M258.471 457.37 C269.916 441.355, 281.733 427.103, 295.446 408.556 M262.428 458.383 C276.659 439.722, 290.681 422.034, 300.458 406.911 M262.492 458.224 C275.854 438.493, 290.641 420.665, 299.748 408.79 M266.3 458.62 C274.44 445.434, 285.427 429.841, 302.95 409.117 M266.508 458.345 C275.22 443.686, 285.759 431.729, 303.095 408.061 M271.461 456.485 C277.995 448.591, 286.241 438.418, 309.024 409.115 M270.578 457.771 C279.773 444.398, 290.079 429.156, 307.233 408.612 M271.367 457.894 C282.918 445.377, 294.188 430.459, 311.08 410.45 M272.731 458.137 C284.9 441.265, 297.613 424.402, 311.717 409.36 M276.715 457.006 C288.835 444.731, 296.339 432.316, 315.963 409.498 M277.188 457.877 C288.711 443.805, 300.46 429.29, 316.108 407.902 M279.527 457.491 C288.342 447.429, 298.523 434.225, 317.512 408.634 M280.537 458.387 C295.621 438.907, 308.113 421.378, 317.893 407.73 M283.603 457.112 C295.444 443.451, 305.092 433.832, 323.6 407.708 M285.341 458.214 C295.426 444.493, 305.191 430.607, 323.3 409.263 M287.102 455.854 C299.202 441.958, 312.936 427.529, 326.967 409.081 M289.74 457.898 C303.475 437.748, 317.232 419.982, 325.43 409.178 M293.818 457.81 C305.208 440.913, 315.904 425.456, 329.384 408.378 M291.573 456.993 C302.78 443.678, 313.293 431.432, 329.482 408.093 M296.142 459.577 C308.006 445.372, 316.975 432.178, 334.836 409.751 M296.405 458.623 C305.293 447.047, 312.768 437.487, 334.108 408.491 M300.786 458.068 C307.81 445.773, 318.156 433.476, 336.038 407.418 M299.633 457.362 C314.229 439.169, 329.816 418.478, 337.256 409.444 M304.791 456.038 C319.442 437.934, 332.85 419.478, 340.549 409.346 M303.17 456.659 C318.06 439.496, 330.525 420.92, 342.474 408.046 M307.488 456.769 C319.622 441.773, 333.147 422.358, 345.74 406.959 M306.682 457.083 C322.57 439.038, 337.703 419.503, 345.952 408.052 M310.185 459.953 C322.907 441.459, 337.189 421.102, 346.758 410.346 M310.538 458.326 C323.013 442.66, 335.388 425.7, 348.758 408.441 M314.355 456.549 C324.044 444.583, 333.16 431.858, 354.014 410.153 M315.624 457.212 C329.014 439.805, 342.404 423.373, 352.981 407.791 M318.811 456.702 C332.717 443.114, 343.173 423.081, 355.303 407.492 M318.347 458.23 C329.838 442.134, 343.662 427.218, 356.337 409.413 M322.373 457.424 C337.041 438.487, 352.647 417.271, 361.595 408.696 M322.472 457.568 C334.728 442.085, 346.599 426.307, 359.755 409.475 M328.3 457.417 C336.386 442.467, 346.88 427.231, 361.811 413.535 M326.268 457.467 C338.607 443.095, 350.026 428.543, 361.123 411.247 M331.951 457.027 C340.755 442.465, 354.861 427.503, 360.971 416.776 M329.911 457.178 C337.88 447.477, 347.65 436.435, 361.917 417.849 M335.699 456.221 C339.949 449.851, 346.831 440.145, 362.881 422.563 M333.299 458.518 C342.877 446.369, 353.415 434.099, 360.957 421.903 M337.986 459.976 C346.934 444, 357.251 433.655, 359.993 427.428 M337.263 457.988 C344.33 448.704, 350.232 440.264, 361.67 426.064 M340.315 457.216 C349.397 447.188, 356.786 440.355, 360.583 432.448 M341.307 456.922 C349.174 448.969, 356.51 439.383, 361.091 431.382 M344.796 459.359 C352.059 450.399, 355.729 442.96, 363.25 436 M345.036 457.874 C350.906 451.772, 355.672 444.099, 361.189 435.362 M349.898 459.913 C354.605 450.026, 359.904 447.254, 360.965 442.663 M347.84 457.455 C350.955 453.219, 354.455 449.855, 361.602 441.074 M352.511 456.668 C354.048 455.484, 355.427 453.229, 361.649 447.291 M352.702 457.444 C355.582 453.033, 358.083 449.716, 362.056 445.985 M357.369 457.44 C357.317 456.778, 358.016 454.74, 362.09 451.913 M356.865 457.362 C358.68 455.525, 359.81 453.451, 361.683 451.564 M360.278 457.737 C360.67 457.49, 360.863 456.785, 361.547 456.275 M360.101 457.993 C360.627 457.386, 361.147 456.777, 361.447 456.366" stroke="rgb(236, 236, 255)" stroke-width="2.755" fill="none"></path><path d="M229.712 408.162 C274.716 411.297, 318.686 407.963, 361.958 408.035 M361.564 407.449 C363.61 426.363, 362.756 443.041, 361.919 459.318 M361.519 458.147 C325.336 457.762, 293.884 457.847, 230.783 459.092 M233.088 459.141 C232.074 446.591, 232.75 434.47, 232.457 410.225" stroke="rgb(147, 112, 219)" stroke-width="1" fill="none"></path></g><g class="text-container" transform="matrix(0.999999 0 0 0.999999 296.535 423.6)"><text y="-10.1" style="font-style: normal;font-weight: 400;font-size: 16px;font-family: Comic Sans MS, cursive;" stroke="none" stroke-width="1px" fill="rgb(51, 51, 51)" text-anchor="middle" dominant-baseline="auto"><tspan class="text-outer-tspan" x="0" y="-0.1em" dy="1.1em" stroke="none" stroke-width="1px" fill="rgb(51, 51, 51)" text-anchor="middle" dominant-baseline="auto"><tspan font-style="normal" class="text-inner-tspan" font-weight="normal">حساب</tspan><tspan font-style="normal" class="text-inner-tspan" font-weight="normal"> النتيجة</tspan></tspan></text></g><g><path d="M184.006 507.747 C184.006 507.747, 184.006 507.747, 184.006 507.747 M184.006 507.747 C184.006 507.747, 184.006 507.747, 184.006 507.747 M184.798 514.791 C186.17 512.46, 187.628 509.377, 189.184 507.163 M184.151 514.293 C184.862 512.5, 186.01 510.917, 189.074 508.221 M183.811 520.906 C185.46 517.08, 189.537 512.71, 194.922 508.332 M184.048 520.412 C186.231 517.036, 188.28 515.387, 194.447 507.541 M184.27 525.701 C187.427 520.598, 193.856 516.172, 199.995 505.842 M184.824 526.813 C188.758 521.519, 194.072 514.404, 199.281 507.752 M186.033 533.684 C190.503 524.337, 195.79 517.221, 202.652 507.093 M184.916 532.595 C191.536 523.53, 197.718 515.072, 203.853 506.534 M183.953 541.059 C194.644 527.309, 205.243 515.556, 209.713 509.536 M183.267 538.842 C191.79 529.177, 199.9 519.573, 209.024 507.734 M184.624 546.658 C191.583 535.206, 202.477 526.662, 214.969 506.332 M185.284 547.071 C195.867 531.796, 208.283 517.152, 213.813 508.006 M186.283 552.285 C197.944 535.699, 209.715 517.838, 220.42 507.257 M184.608 552.889 C193.171 541.925, 201.269 532.379, 218.652 507.195 M184.906 560.518 C193.663 547.135, 203.503 535.139, 225.244 506.286 M184.358 558.809 C194.949 545.527, 208.076 529.982, 224.629 507.341 M183.757 564.891 C201.935 542.618, 218.936 518.489, 229.24 508.191 M183.43 566.912 C198.823 547.002, 215.283 527.789, 230.797 507.49 M185.106 573.588 C198.103 555.849, 207.657 540.575, 236.38 507.873 M183.087 572.904 C200.637 550.127, 218.424 528.614, 235.985 508.252 M186.191 575.638 C205.605 554.25, 220.557 530.408, 239.219 505.99 M187.855 574.904 C204.633 554.689, 220.353 531.32, 240.083 508.142 M192.398 574.611 C209.993 555.122, 223.335 534.153, 245.899 507.705 M192.34 575.294 C207.927 553.834, 225.542 534.845, 245.103 507.485 M198.691 575.374 C215.994 554.112, 232.785 534.28, 252.081 506.999 M196.761 573.576 C208.639 560.468, 219.875 547.473, 250.933 506.854 M201.837 573.282 C212.747 558.885, 226.916 546.455, 256.805 506.046 M202.716 574.509 C219.645 552.835, 236.391 530.374, 254.701 508.026 M207.365 573.129 C222.094 553.54, 239.586 536.083, 258.815 506.218 M207.194 573.896 C218.97 559.003, 231.902 541.912, 261.026 507.79 M211.533 574.26 C231.94 551.202, 250.912 526.82, 264.879 506.12 M212.204 575.559 C223.705 561.417, 233.799 547.721, 266.497 506.974 M217.211 574.897 C237.781 548.245, 260.013 524.241, 268.977 508.82 M216.972 574.305 C232.632 555.64, 248.311 535.416, 271.631 506.54 M221.729 575.615 C238.041 553.145, 256.263 532.809, 276.943 509.082 M223.035 575.216 C238.585 555.492, 254.094 535.851, 276.014 508.445 M227.459 573.785 C240.68 558.185, 252.896 541.043, 280.557 508.582 M227.275 573.726 C244.595 553.659, 261.809 532.586, 281.422 507.502 M232.949 574.993 C250.37 551.622, 266.865 529.735, 286.129 506.485 M233.08 573.889 C250.177 553.365, 264.915 532.723, 285.217 507.12 M236.336 576.115 C250.265 559.628, 259.865 547.392, 289.376 506.074 M237.598 575.185 C252.497 555.442, 265.797 538.082, 291.819 507.14 M241.372 573.362 C262.719 550.329, 279.479 530.499, 294.511 508.461 M242.242 575.036 C258.726 554.544, 274.855 534.558, 295.679 507.914 M246.908 576.363 C269.424 548.787, 284.914 526.642, 301.871 505.939 M248.904 574.549 C266.562 552.829, 282.971 529.97, 301.102 506.654 M252.951 575.776 C264.835 556.805, 278.521 541.322, 307.654 507.68 M253.544 575.71 C272.179 549.148, 291.716 524.489, 306.39 507.685 M260.268 575.836 C272.233 557.339, 286.39 540.995, 312.618 507.307 M258.563 573.879 C270.196 559.722, 281.57 544.927, 310.868 508.179 M263.688 573.68 C281.961 549.339, 303.267 526.025, 316.441 507.65 M264.101 574.934 C280.69 552.334, 297.564 531.611, 316.575 508.032 M268.683 575.831 C278.904 561.511, 292.334 546.553, 319.479 506.365 M268.617 574.761 C281.151 558.172, 294.225 543.644, 321.641 508.61 M274.157 574.321 C285.512 556.971, 298.275 544.645, 326.961 508.591 M273.347 575.355 C294.619 548.874, 315.786 521.798, 326.753 507.362 M279.149 575.735 C292.82 553.108, 310.241 533.687, 333.631 507.972 M279.344 574.04 C298.93 550.937, 318.45 524.527, 331.348 506.613 M282.003 575.663 C299.823 556.049, 313.43 539.196, 337.905 506.743 M284.191 575.686 C296.76 556.578, 311.383 540.835, 337.039 506.623 M289.762 573.129 C301.541 558.359, 318.065 540.97, 342.211 507.593 M287.871 574.881 C305.103 553.341, 322.556 532.743, 341.76 508.353 M292.776 572.424 C311.406 553.481, 328.908 527.451, 345.738 506.904 M294.052 573.655 C311.351 553.088, 329.886 529.264, 346.949 507.692 M299.918 575.778 C313.975 553.724, 328.998 536.328, 350.238 509.269 M298.561 574.518 C318.34 549.648, 338.358 524.99, 351.605 507.717 M303.747 574.413 C319.583 557.69, 332.547 542.384, 356.846 508.259 M303.556 575.519 C321.408 552.77, 340.527 528.815, 356.288 507.299 M307.551 574.256 C327.568 547.523, 347.757 524.216, 360.663 508.825 M308.605 575.244 C323.036 557.647, 337.518 538.391, 362.928 508.444 M312.597 575.064 C326.381 561.882, 337.745 545.897, 367.259 508.246 M313.829 574.176 C332.913 552.617, 350.818 529.782, 367.008 507.101 M320.555 573.102 C333.711 557.157, 344.599 541.221, 371.034 505.486 M318.671 575.256 C340.74 548.587, 361.183 521.87, 373.644 507.874 M325.342 574.124 C343.004 554.368, 360.543 530.099, 376.987 506.834 M325.571 575.189 C340.065 555.891, 355.096 535.543, 377.147 508.362 M330.468 574.702 C346.385 551.83, 366.868 530.446, 380.779 506.092 M330.141 574.782 C351.214 547.578, 371.808 520.612, 381.906 508.02 M334.542 572.592 C352.435 551.589, 371.504 527.563, 388.204 509.249 M334.136 575.182 C350.199 555.992, 365.116 535.586, 388.654 508.115 M340.93 574.848 C360.008 547.352, 383.737 520.768, 393.055 506.133 M339.097 574.266 C355.554 553.534, 373.012 532.178, 393.019 507.687 M344.365 575.529 C359.948 557.988, 372.673 537.84, 398.865 507.564 M345.776 574.29 C364.828 552.036, 381.441 527.504, 398.475 506.372 M349.798 573.959 C361.657 560.557, 372.95 544.716, 404.363 507.284 M349.399 575.668 C361.45 559.094, 375.896 542.216, 403.203 506.834 M355.43 575.711 C372.112 557.619, 387.805 537.831, 408.451 508.768 M354.474 575.975 C365.184 561.07, 377.242 545.785, 407.432 507.985 M360.47 572.768 C375.143 554.661, 394.092 534.051, 410.669 512.202 M360.178 575.304 C377.635 555.21, 391.905 535.369, 409.922 512.986 M364.25 575.079 C379.627 555.992, 395.196 536.832, 407.969 520.151 M365.877 574.946 C380.665 554.966, 395.7 536.48, 409.091 520.198 M372.129 572.981 C380.871 560.01, 395.439 542.395, 408.217 525.393 M370.948 574.102 C381.176 561.434, 392.468 546.974, 409.007 525.83 M376.589 573.993 C383.72 566.937, 390.667 553.954, 408.713 530.387 M376.299 575.628 C383.06 564.807, 392.277 555.217, 409.836 531.678 M381.764 573.75 C386.204 566.846, 395.86 557.931, 410.593 537.03 M380.846 575.502 C389.841 563.948, 396.821 553.705, 409.642 539.22 M385.281 576.142 C391.088 569.207, 394.955 561.06, 410.198 546.662 M385.821 574.141 C390.812 567.791, 395.55 562.434, 409.254 544.944 M392.618 574.832 C398.509 566.082, 404.86 559.616, 410.302 551.495 M389.807 574.372 C396.365 567.094, 401.808 560.756, 408.696 552.483 M395.427 574.12 C397.375 570.775, 402.045 565.385, 410.756 557.508 M397.149 574.439 C401.277 567.489, 405.752 561.519, 409.923 557.69 M402.08 573.848 C404.796 571.108, 404.956 567.813, 409.772 563.377 M401.905 574.269 C402.507 572.195, 404.367 569.433, 409.235 564.672 M406.71 575.121 C407.08 573.054, 408.383 571.928, 409.19 570.695 M406.523 574.52 C407.148 573.55, 408.051 571.992, 409.174 570.762" stroke="rgb(236, 236, 255)" stroke-width="2.082" fill="none"></path><path d="M185.386 508.597 C233.948 505.617, 281.461 507.652, 407.399 507.24 M408.95 508.19 C407.647 528.221, 408.003 546.289, 408.956 575.971 M407.694 574.07 C340.174 576.272, 271.588 574.74, 185.563 573.618 M183.891 575.216 C186.393 560.711, 186.214 543.282, 182.812 506.591" stroke="rgb(147, 112, 219)" stroke-width="1" fill="none"></path></g><g class="text-container" transform="matrix(0.999999 0 0 0.999999 296.535 522.6)"><text y="-10.1" style="font-style: normal;font-weight: 400;font-size: 16px;font-family: Comic Sans MS, cursive;" stroke="none" stroke-width="1px" fill="rgb(51, 51, 51)" text-anchor="middle" dominant-baseline="auto"><tspan class="text-outer-tspan" x="0" y="-0.1em" dy="1.1em" stroke="none" stroke-width="1px" fill="rgb(51, 51, 51)" text-anchor="middle" dominant-baseline="auto"><tspan font-style="normal" class="text-inner-tspan" font-weight="normal">تخزين</tspan><tspan font-style="normal" class="text-inner-tspan" font-weight="normal"> النتيجة</tspan><tspan font-style="normal" class="text-inner-tspan" font-weight="normal"> في</tspan><tspan font-style="normal" class="text-inner-tspan" font-weight="normal"> ذاكرة</tspan><tspan font-style="normal" class="text-inner-tspan" font-weight="normal"> التخزين</tspan></tspan><tspan class="text-outer-tspan" x="0" y="1em" dy="1.1em" stroke="none" stroke-width="1px" fill="rgb(51, 51, 51)" text-anchor="middle" dominant-baseline="auto"><tspan font-style="normal" class="text-inner-tspan" font-weight="normal">المؤقت</tspan></tspan></text></g><g><path d="M231.629 624.263 C231.629 624.263, 231.629 624.263, 231.629 624.263 M231.629 624.263 C231.629 624.263, 231.629 624.263, 231.629 624.263 M232.437 630.072 C234.052 627.848, 234.483 626.756, 237.23 624.423 M232.161 629.73 C232.894 628.287, 234.16 627.143, 237.532 623.739 M231.497 636.511 C234.57 633.584, 235.019 631.788, 243.126 622.983 M231.96 636.573 C233.604 634.014, 235.834 631.829, 241.456 624.296 M229.999 643.044 C233.297 637.283, 237.22 636.412, 246.956 622.538 M232.515 641.515 C235.484 637.402, 240.249 633.78, 248.813 624.839 M232.106 647.412 C237.492 641.06, 240.434 638.173, 255.034 623.659 M231.627 647.051 C239.122 639.775, 246.206 630.569, 254.522 624.567 M229.81 653.997 C241.839 643.364, 250.961 631.565, 258.188 622.913 M231.789 653.238 C241.544 642.367, 252.965 630.376, 258.472 623.856 M232.779 657.943 C239.345 651.52, 246.209 642.776, 265.828 623.477 M231.923 658.871 C239.918 650.809, 246.827 644.247, 264.021 625.118 M230.166 665.749 C244.833 649.089, 261.698 636.197, 268.924 624.61 M232.601 664.309 C244.233 653.001, 254.504 639.143, 270.555 625.063 M231.784 669.891 C243.605 657.513, 256.472 641.624, 275.627 623.431 M231.049 671.42 C243.518 659.87, 255.717 647.332, 275.529 623.65 M233.72 674.321 C251.578 653.309, 270.701 632.832, 280.759 624.339 M232.786 674.38 C245.344 660.72, 259.539 647.653, 281.17 623.726 M238.098 676.822 C257.605 654.93, 272.492 637.077, 287.452 625.137 M240.337 675.257 C252.523 660.892, 266.693 646.384, 286.479 624.703 M242.876 675.396 C256.106 660.442, 272.204 646.943, 291.335 622.994 M243.663 675.397 C258.68 659.116, 274.167 641.502, 290.808 623.031 M249.544 676.399 C265.92 657.779, 282.848 638.424, 294.772 624.503 M250.562 674.921 C264.609 659.435, 278.703 645.258, 296.364 624.532 M253.997 675.752 C267.479 663.046, 275.12 653.646, 300.602 623.133 M255.653 674.102 C267.438 663.253, 279.001 649.53, 301.582 623.608 M258.672 675.655 C275.822 658.556, 291.312 639.386, 308.229 623.041 M261.443 675.317 C275.118 659.048, 291.033 644.363, 307.557 623.576 M267.384 674.519 C278.29 663.221, 289.535 649.737, 314.384 626.393 M266.635 675.886 C285.147 655.907, 301.495 637.199, 312.441 623.874 M271.495 674.089 C282.641 664.354, 293.711 651.364, 318.819 622.966 M271.702 675.479 C289.186 657.161, 305.363 638.307, 318.068 624.912 M276.627 673.807 C287.281 662.255, 299.065 651.631, 324.135 622.971 M277.869 675.014 C289.691 661.495, 301.965 647.693, 323.592 623.548 M284.421 675.135 C299.262 658.868, 315.202 643.247, 328.466 625.848 M282.338 675.285 C299.829 656.364, 319.087 636.295, 329.82 625.457 M287.184 676.468 C302.759 662.328, 313.973 647.853, 334.9 622.94 M287.243 674.264 C304.684 655.595, 323.772 636.747, 333.985 624.395 M292.073 674.599 C311.393 659.257, 325.931 640.227, 340.068 623.551 M293.609 674.33 C306.873 661.311, 319.477 646.934, 340.459 625.019 M297.3 675.993 C313.461 656.774, 330.291 640.847, 346.893 624.226 M299.094 675.063 C313.684 659.969, 327.314 644.745, 346.356 624.478 M304.525 675.464 C320.613 659.9, 332.235 644.26, 350.323 625.218 M304.462 674.163 C321.937 655.961, 341.349 636.538, 352.167 625.131 M308.352 672.901 C320.907 662.51, 330.374 654.783, 356.989 625.633 M309.764 674.622 C327.921 654.153, 346.903 634.979, 356.235 624.412 M314.55 673.578 C325.511 660.854, 340.097 651.125, 362.646 623.915 M314.919 675.869 C332.564 656.58, 348.207 638.899, 361.677 624.516 M319.21 674.089 C334.459 658.365, 350.031 645.222, 361.577 630.695 M320.035 675.971 C331.117 665.718, 340.625 655.173, 361.477 630.993 M328.314 676.523 C335.651 664.665, 349.412 653.575, 360.94 635.29 M326.65 674.385 C339.106 660.87, 352.801 646.354, 361.101 635.793 M332.097 677.093 C337.499 665.762, 345.19 660.109, 361.799 644.172 M330.931 675.166 C342.624 663.626, 354.097 652.174, 360.958 642.12 M336.202 673.866 C341.941 669.255, 351.148 659.268, 363.148 647.192 M337.827 675.735 C344.845 667.312, 353.043 657.663, 362.366 648.348 M344.433 676.135 C347.827 669.172, 354.602 663.135, 360.412 655.928 M343.187 674.16 C347.346 669.644, 351.843 664.336, 361.157 654.585 M347.288 675.637 C351.456 672.966, 356.168 665.808, 361.124 659.557 M346.766 676.238 C351.304 670.886, 354.559 667.916, 361.403 659.011 M354.119 675.132 C356.071 672.921, 359.034 669.128, 362.072 664.894 M352.893 675.445 C354.907 673.512, 357.934 670.635, 361.598 665.356 M358.908 674.832 C359.757 673.744, 360.684 672.747, 361.444 672.163 M358.917 675.001 C360.063 674.055, 360.714 672.712, 361.52 672.131" stroke="rgb(236, 236, 255)" stroke-width="2.31" fill="none"></path><path d="M233.428 624.984 C282.771 622.18, 332.454 622.58, 362.601 624.127 M359.685 624.05 C361.526 637.619, 360.105 651.824, 361.705 672.017 M361.935 673.353 C331.647 672.057, 301.671 672.509, 230.715 671.708 M232.583 674.036 C230.02 655.47, 230.378 638.021, 231.98 626.104" stroke="rgb(147, 112, 219)" stroke-width="1" fill="none"></path></g><g class="text-container" transform="matrix(0.999999 0 0 0.999999 296.535 639.2)"><text y="-10.1" style="font-style: normal;font-weight: 400;font-size: 16px;font-family: Comic Sans MS, cursive;" stroke="none" stroke-width="1px" fill="rgb(51, 51, 51)" text-anchor="middle" dominant-baseline="auto"><tspan class="text-outer-tspan" x="0" y="-0.1em" dy="1.1em" stroke="none" stroke-width="1px" fill="rgb(51, 51, 51)" text-anchor="middle" dominant-baseline="auto"><tspan font-style="normal" class="text-inner-tspan" font-weight="normal">إرجاع</tspan><tspan font-style="normal" class="text-inner-tspan" font-weight="normal"> النتيجة</tspan></tspan></text></g></g></svg>